<svg width="95" height="150" viewBox="0 0 95 150" fill="none" xmlns="http://www.w3.org/2000/svg">
<g clip-path="url(#clip0_1_3)">
<path d="M95.474 -6.29186L146.408 -4.97582L150.768 152.434L90.9621 150.888L88.8532 157.734L74.6553 154.916L59.9955 159.133L53.5013 149.92L1.16459 -8.72866L95.474 -6.29186Z" fill="#003B75"/>
<line y1="-0.5" x2="213.561" y2="-0.5" transform="matrix(0.312734 0.949841 0.949841 -0.312734 -6.87598 -24.0928)" stroke="#ED7D31"/>
<g clip-path="url(#clip1_1_3)">
<path d="M36 49H0V84.969H36V49Z" fill="#E60000"/>
<path d="M0 84.969H36V100.534L18.1053 110L0 100.534" fill="#002171"/>
<path d="M30.9263 97.8631L31.3474 97.821C31.36 97.9157 31.3979 97.9914 31.4568 98.0482C31.5158 98.1029 31.5832 98.1302 31.6611 98.1302C31.7474 98.1302 31.8232 98.0966 31.8842 98.0251C31.9453 97.9536 31.9768 97.8442 31.9768 97.699C31.9768 97.5623 31.9453 97.4613 31.8842 97.394C31.8253 97.3267 31.7453 97.2931 31.6484 97.2931C31.5284 97.2931 31.4189 97.3478 31.3221 97.455L30.9768 97.4046L31.1937 96.254H32.3158V96.6515H31.5158L31.4505 97.0259C31.5453 96.9776 31.6421 96.9544 31.7411 96.9544C31.9284 96.9544 32.0884 97.0238 32.2168 97.1606C32.3474 97.2973 32.4147 97.474 32.4147 97.6906C32.4147 97.8736 32.3621 98.0356 32.2568 98.1807C32.1116 98.3742 31.9116 98.471 31.659 98.471C31.4547 98.471 31.2884 98.4184 31.1579 98.309C31.0274 98.1997 30.9516 98.0524 30.9284 97.8652L30.9263 97.8631ZM30.6337 98.0356V98.431H29.1474C29.1642 98.2817 29.2126 98.1408 29.2926 98.0103C29.3726 97.8778 29.5326 97.699 29.7684 97.4782C29.96 97.3015 30.0758 97.1816 30.12 97.1164C30.179 97.0301 30.2084 96.9418 30.2084 96.8577C30.2084 96.763 30.1832 96.6915 30.1284 96.641C30.0779 96.5905 30.0084 96.5653 29.9221 96.5653C29.8358 96.5653 29.76 96.5926 29.7074 96.6473C29.6568 96.6999 29.6274 96.7882 29.6189 96.9102L29.1979 96.8682C29.2211 96.6368 29.3011 96.4706 29.4316 96.3697C29.5642 96.2666 29.7305 96.214 29.9326 96.214C30.1495 96.214 30.32 96.2729 30.4463 96.3907C30.5705 96.5085 30.6337 96.6536 30.6337 96.8282C30.6337 96.9292 30.6147 97.0238 30.5768 97.1143C30.5411 97.2047 30.4863 97.2994 30.4084 97.3961C30.3579 97.4592 30.2653 97.5539 30.1326 97.6759C29.9979 97.8 29.9137 97.882 29.8758 97.922C29.84 97.962 29.8126 97.9998 29.7895 98.0377H30.6316L30.6337 98.0356ZM28.2021 96.5632C28.1495 96.5632 28.1032 96.58 28.0632 96.6116C28.0232 96.6452 27.9916 96.702 27.9705 96.7861C27.9389 96.8955 27.9242 97.0806 27.9242 97.3415C27.9242 97.6023 27.9368 97.7769 27.9642 97.8736C27.9895 97.9704 28.0232 98.0356 28.0632 98.0671C28.1032 98.1008 28.1495 98.1176 28.2021 98.1176C28.2547 98.1176 28.2968 98.1008 28.3368 98.0671C28.379 98.0335 28.4105 97.9746 28.4316 97.8904C28.459 97.7832 28.4737 97.6002 28.4737 97.3415C28.4737 97.0827 28.4611 96.9018 28.4337 96.8051C28.4084 96.7083 28.3747 96.6452 28.3347 96.6116C28.2947 96.5779 28.2505 96.5632 28.2 96.5632H28.2021ZM28.2021 96.2119C28.4147 96.2119 28.5811 96.2897 28.7032 96.4412C28.8484 96.62 28.92 96.9208 28.92 97.3415C28.92 97.7621 28.8484 98.0587 28.7032 98.2417C28.5832 98.3911 28.4147 98.4647 28.2021 98.4647C27.9895 98.4647 27.8126 98.3827 27.6779 98.2186C27.5474 98.0545 27.48 97.76 27.48 97.3351C27.48 96.9102 27.5516 96.62 27.6968 96.437C27.8168 96.2855 27.9853 96.2098 28.2 96.2098L28.2021 96.2119ZM27.2 98.0356V98.431H25.7137C25.7305 98.2817 25.7789 98.1408 25.8589 98.0103C25.9389 97.8778 26.0989 97.699 26.3368 97.4782C26.5284 97.3015 26.6442 97.1816 26.6884 97.1164C26.7474 97.0301 26.7768 96.9418 26.7768 96.8577C26.7768 96.763 26.7516 96.6915 26.6968 96.641C26.6463 96.5905 26.5768 96.5653 26.4884 96.5653C26.4 96.5653 26.3284 96.5926 26.2758 96.6473C26.2253 96.6999 26.1958 96.7882 26.1874 96.9102L25.7663 96.8682C25.7895 96.6368 25.8674 96.4706 26 96.3697C26.1326 96.2666 26.3011 96.214 26.5011 96.214C26.7179 96.214 26.8884 96.2729 27.0147 96.3907C27.139 96.5085 27.2021 96.6536 27.2021 96.8282C27.2021 96.9292 27.1832 97.0238 27.1474 97.1143C27.1116 97.2047 27.0568 97.2994 26.9789 97.3961C26.9284 97.4592 26.8358 97.5539 26.7032 97.6759C26.5684 97.8 26.4842 97.882 26.4463 97.922C26.4105 97.962 26.3832 97.9998 26.36 98.0377H27.2021L27.2 98.0356ZM24.7768 98.4668L25.3221 96.1824H25.6421L25.0905 98.4668H24.7789H24.7768ZM24.2063 98.431H23.7832V96.8303H24.1789V97.0575C24.2442 96.9502 24.3032 96.8808 24.3558 96.8471C24.4105 96.8135 24.4716 96.7946 24.5432 96.7946C24.64 96.7946 24.7305 96.8198 24.8189 96.8745L24.6884 97.2447C24.6168 97.1984 24.5516 97.1753 24.4905 97.1753C24.4295 97.1753 24.3811 97.1921 24.3389 97.2258C24.2968 97.2573 24.2653 97.3141 24.24 97.4003C24.2168 97.4866 24.2063 97.6654 24.2063 97.9388V98.431ZM22.3179 97.596C22.3179 97.7621 22.3432 97.8862 22.3979 97.9641C22.4695 98.0756 22.5684 98.1323 22.6905 98.1323C22.7832 98.1323 22.8611 98.0924 22.9263 98.0146C22.9916 97.9346 23.0253 97.8063 23.0253 97.6359C23.0253 97.4508 22.9916 97.3204 22.9263 97.2405C22.8611 97.1606 22.7768 97.1185 22.6737 97.1185C22.5705 97.1185 22.4842 97.1585 22.4168 97.2363C22.3516 97.3162 22.3179 97.434 22.3179 97.5939V97.596ZM21.8968 98.431V96.2224H22.32V97.0175C22.4484 96.8682 22.6042 96.7946 22.7832 96.7946C22.9768 96.7946 23.1389 96.8661 23.2674 97.007C23.3937 97.1479 23.459 97.3478 23.459 97.6128C23.459 97.8778 23.3937 98.0987 23.2653 98.248C23.1347 98.3953 22.9768 98.4689 22.7916 98.4689C22.6989 98.4689 22.6084 98.4458 22.5179 98.3995C22.4295 98.3532 22.3537 98.2859 22.2905 98.1955V98.431H21.8947H21.8968ZM20.8611 97.556L20.5558 96.7378L20.2568 97.556H20.8632H20.8611ZM21.68 98.431H21.1958L21.0021 97.9283H20.1179L19.9368 98.431H19.4632L20.3242 96.2224H20.7937L21.6779 98.431H21.68ZM17.8653 97.8421V97.4193H18.6968V97.8421H17.8653ZM16.08 97.6128V96.8598L15.5705 97.6128H16.08ZM16.08 98.431V97.9872H15.1726V97.6149L16.1326 96.2119H16.4884V97.6128H16.7642V97.9872H16.4884V98.431H16.08ZM14.9621 98.0356V98.431H13.4758C13.4926 98.2817 13.5411 98.1408 13.6211 98.0103C13.7011 97.8778 13.8611 97.699 14.0989 97.4782C14.2905 97.3015 14.4063 97.1816 14.4505 97.1164C14.5095 97.0301 14.5389 96.9418 14.5389 96.8577C14.5389 96.763 14.5137 96.6915 14.4589 96.641C14.4084 96.5905 14.3389 96.5653 14.2505 96.5653C14.1621 96.5653 14.0905 96.5926 14.0379 96.6473C13.9874 96.6999 13.9579 96.7882 13.9495 96.9102L13.5284 96.8682C13.5516 96.6368 13.6295 96.4706 13.7621 96.3697C13.8947 96.2666 14.0632 96.214 14.2632 96.214C14.48 96.214 14.6505 96.2729 14.7768 96.3907C14.9011 96.5085 14.9642 96.6536 14.9642 96.8282C14.9642 96.9292 14.9453 97.0238 14.9095 97.1143C14.8737 97.2047 14.8189 97.2994 14.7411 97.3961C14.6905 97.4592 14.5979 97.5539 14.4653 97.6759C14.3305 97.8 14.2463 97.882 14.2084 97.922C14.1726 97.962 14.1432 97.9998 14.1221 98.0377H14.9642L14.9621 98.0356ZM12.5305 96.5632C12.4779 96.5632 12.4316 96.58 12.3916 96.6116C12.3516 96.6452 12.32 96.702 12.2989 96.7861C12.2674 96.8955 12.2526 97.0806 12.2526 97.3415C12.2526 97.6023 12.2653 97.7769 12.2926 97.8736C12.3179 97.9704 12.3516 98.0356 12.3916 98.0671C12.4316 98.1008 12.4779 98.1176 12.5305 98.1176C12.5832 98.1176 12.6253 98.1008 12.6653 98.0671C12.7053 98.0335 12.7389 97.9746 12.76 97.8904C12.7874 97.7832 12.8021 97.6002 12.8021 97.3415C12.8021 97.0827 12.7895 96.9018 12.7621 96.8051C12.7368 96.7083 12.7032 96.6452 12.6632 96.6116C12.6232 96.5779 12.5789 96.5632 12.5284 96.5632H12.5305ZM12.5305 96.2119C12.7432 96.2119 12.9095 96.2897 13.0316 96.4412C13.1768 96.62 13.2484 96.9208 13.2484 97.3415C13.2484 97.7621 13.1768 98.0587 13.0316 98.2417C12.9116 98.3911 12.7432 98.4647 12.5305 98.4647C12.3179 98.4647 12.1411 98.3827 12.0084 98.2186C11.8779 98.0545 11.8105 97.76 11.8105 97.3351C11.8105 96.9102 11.8821 96.62 12.0274 96.437C12.1474 96.2855 12.3158 96.2098 12.5305 96.2098V96.2119ZM11.5263 98.0356V98.431H10.04C10.0568 98.2817 10.1053 98.1408 10.1853 98.0103C10.2653 97.8778 10.4253 97.699 10.6632 97.4782C10.8547 97.3015 10.9705 97.1816 11.0147 97.1164C11.0737 97.0301 11.1032 96.9418 11.1032 96.8577C11.1032 96.763 11.0779 96.6915 11.0232 96.641C10.9726 96.5905 10.9032 96.5653 10.8168 96.5653C10.7305 96.5653 10.6547 96.5926 10.6021 96.6473C10.5516 96.6999 10.5221 96.7882 10.5137 96.9102L10.0926 96.8682C10.1158 96.6368 10.1958 96.4706 10.3263 96.3697C10.4589 96.2666 10.6274 96.214 10.8274 96.214C11.0442 96.214 11.2147 96.2729 11.3411 96.3907C11.4653 96.5085 11.5284 96.6536 11.5284 96.8282C11.5284 96.9292 11.5095 97.0238 11.4716 97.1143C11.4358 97.2047 11.3811 97.2994 11.3032 97.3961C11.2526 97.4592 11.16 97.5539 11.0274 97.6759C10.8926 97.8 10.8084 97.882 10.7705 97.922C10.7347 97.962 10.7053 97.9998 10.6842 98.0377H11.5263V98.0356ZM9.10316 98.4668L9.64842 96.1824H9.96842L9.41684 98.4668H9.10316ZM8.53474 98.431H8.10948V96.8303H8.50316V97.0575C8.56842 96.9502 8.62737 96.8808 8.68 96.8471C8.73474 96.8135 8.7979 96.7946 8.86737 96.7946C8.96421 96.7946 9.05474 96.8198 9.14316 96.8745L9.01263 97.2447C8.94105 97.1984 8.87579 97.1753 8.81474 97.1753C8.75368 97.1753 8.70526 97.1921 8.66316 97.2258C8.62105 97.2573 8.58737 97.3141 8.56421 97.4003C8.54105 97.4866 8.53053 97.6654 8.53053 97.9388V98.431H8.53474ZM6.64421 97.596C6.64421 97.7621 6.67158 97.8862 6.72421 97.9641C6.79579 98.0756 6.89263 98.1323 7.01684 98.1323C7.10948 98.1323 7.18737 98.0924 7.25263 98.0146C7.3179 97.9346 7.35158 97.8063 7.35158 97.6359C7.35158 97.4508 7.3179 97.3204 7.25263 97.2405C7.18737 97.1606 7.10105 97.1185 7 97.1185C6.89895 97.1185 6.81053 97.1585 6.74316 97.2363C6.6779 97.3162 6.64421 97.434 6.64421 97.5939V97.596ZM6.22316 98.431V96.2224H6.64842V97.0175C6.77684 96.8682 6.93263 96.7946 7.11158 96.7946C7.30737 96.7946 7.46737 96.8661 7.59579 97.007C7.72211 97.1479 7.78737 97.3478 7.78737 97.6128C7.78737 97.8778 7.72211 98.0987 7.59369 98.248C7.46316 98.3953 7.30526 98.4689 7.12 98.4689C7.02737 98.4689 6.93684 98.4458 6.84632 98.3995C6.7579 98.3532 6.68211 98.2859 6.61895 98.1955V98.431H6.22316ZM5.18737 97.556L4.88211 96.7378L4.58316 97.556H5.18947H5.18737ZM6.00632 98.431H5.52211L5.32842 97.9283H4.44421L4.26316 98.431H3.78947L4.65053 96.2224H5.12L6.00421 98.431H6.00632Z" fill="white"/>
<path d="M9.1242 54.6435V55.1336C9.1242 56.0381 8.83368 56.7722 8.25263 57.3318C7.67368 57.8934 6.9242 58.1731 6.00841 58.1731C5.02947 58.1731 4.21894 57.8555 3.57684 57.2203C2.93263 56.5829 2.61263 55.8068 2.61263 54.8896C2.61263 53.9725 2.93052 53.1838 3.56631 52.5464C4.2021 51.907 4.99157 51.5872 5.93473 51.5872C6.5242 51.5872 7.06315 51.7219 7.55368 51.9911C8.0421 52.2582 8.42315 52.6158 8.69473 53.0618L7.62526 53.676C7.47578 53.4151 7.24841 53.2048 6.94526 53.0428C6.63999 52.8809 6.30105 52.7988 5.92631 52.7988C5.3221 52.7988 4.82526 52.9965 4.43578 53.3899C4.04841 53.7853 3.85263 54.2839 3.85263 54.8875C3.85263 55.4912 4.05052 55.9771 4.4442 56.3663C4.83999 56.7533 5.3621 56.9489 6.01684 56.9489C6.49894 56.9489 6.89894 56.8438 7.21473 56.6292C7.53263 56.4146 7.74947 56.1202 7.86315 55.7458H5.94526V54.6414H9.1221L9.1242 54.6435Z" fill="white"/>
<path d="M10.9642 54.2166C11.0737 53.9263 11.2547 53.7096 11.5032 53.5666C11.7537 53.4214 12.0316 53.3457 12.3411 53.3457V54.6499C11.9832 54.6078 11.6653 54.6814 11.3832 54.8665C11.1011 55.0537 10.9621 55.3629 10.9621 55.7962V57.9586H9.79369V53.4362H10.9621V54.2145L10.9642 54.2166Z" fill="white"/>
<path d="M14.0505 55.2746H16.36C16.2926 54.9654 16.1537 54.7382 15.9453 54.5868C15.7368 54.4353 15.4989 54.3596 15.2337 54.3596C14.92 54.3596 14.6589 54.4395 14.4547 54.5994C14.2505 54.7592 14.1158 54.9843 14.0505 55.2725V55.2746ZM14.0674 56.1791C14.2253 56.747 14.6505 57.031 15.3432 57.031C15.7895 57.031 16.1284 56.8795 16.36 56.5766L17.3011 57.1193C16.8547 57.7651 16.1958 58.089 15.3263 58.089C14.5768 58.089 13.9768 57.8639 13.5242 57.4117C13.0716 56.9573 12.8463 56.3873 12.8463 55.6995C12.8463 55.0117 13.0695 54.45 13.5137 53.9936C13.96 53.5392 14.5347 53.31 15.2337 53.31C15.9326 53.31 16.4463 53.5392 16.8779 53.9999C17.3095 54.4584 17.5263 55.0243 17.5263 55.6995C17.5263 55.8509 17.5116 56.0108 17.48 56.1791H14.0653H14.0674Z" fill="white"/>
<path d="M19.5242 56.6187C19.7579 56.8543 20.0568 56.9742 20.4189 56.9742C20.7811 56.9742 21.0842 56.8564 21.32 56.6187C21.5558 56.381 21.6779 56.0739 21.6779 55.6974C21.6779 55.3209 21.5579 55.0159 21.32 54.7803C21.0842 54.5426 20.7832 54.4227 20.4189 54.4227C20.0547 54.4227 19.7579 54.5426 19.5242 54.7803C19.2884 55.0159 19.1726 55.323 19.1726 55.6974C19.1726 56.0718 19.2905 56.3789 19.5242 56.6187ZM21.68 53.4383H22.8484V57.9607H21.68V57.4285C21.3305 57.8681 20.84 58.089 20.2063 58.089C19.5726 58.089 19.0821 57.8576 18.6505 57.3949C18.2211 56.9342 18.0063 56.3684 18.0063 55.6995C18.0063 55.0306 18.2211 54.4669 18.6505 54.0041C19.0821 53.5435 19.6021 53.31 20.2063 53.31C20.8105 53.31 21.3305 53.5308 21.68 53.9704V53.4383Z" fill="white"/>
<path d="M26.7011 54.5594H25.6779V56.442C25.6779 56.5977 25.7179 56.7112 25.7958 56.7828C25.8758 56.8543 25.9895 56.8963 26.1411 56.9069C26.2926 56.9153 26.4779 56.9132 26.7011 56.9005V57.9586C25.899 58.0469 25.3326 57.9733 25.0042 57.7314C24.6758 57.4895 24.5116 57.0604 24.5116 56.4399V54.5573H23.7263V53.4362H24.5116V52.5233L25.68 52.172V53.4383H26.7032V54.5594H26.7011Z" fill="white"/>
<path d="M5.79369 62.685C6.05895 62.685 6.2779 62.5925 6.45474 62.4095C6.62947 62.2244 6.7179 61.9972 6.7179 61.7259C6.7179 61.4545 6.62947 61.2231 6.45474 61.0422C6.2779 60.8613 6.05895 60.7688 5.79369 60.7688H4.68211V62.685H5.79369ZM5.79369 59.6035C6.40211 59.6035 6.91579 59.8096 7.33263 60.2177C7.74948 60.6279 7.9579 61.1306 7.9579 61.7301C7.9579 62.3296 7.74948 62.8302 7.33263 63.2382C6.91579 63.6484 6.40211 63.8525 5.79369 63.8525H4.68211V65.9328H3.43158V59.6035H5.79369Z" fill="white"/>
<path d="M10.0168 59.4352H8.84842V66.0379H10.0168V59.4352Z" fill="white"/>
<path d="M12.4084 64.5908C12.6421 64.8263 12.9411 64.9462 13.3032 64.9462C13.6653 64.9462 13.9684 64.8285 14.2042 64.5908C14.4421 64.3531 14.5621 64.046 14.5621 63.6694C14.5621 63.2929 14.4421 62.99 14.2042 62.7523C13.9684 62.5147 13.6653 62.3948 13.3032 62.3948C12.9411 62.3948 12.6421 62.5147 12.4084 62.7523C12.1726 62.9879 12.0568 63.295 12.0568 63.6694C12.0568 64.0439 12.1726 64.351 12.4084 64.5908ZM14.5642 61.4103H15.7326V65.9328H14.5642V65.4006C14.2147 65.8402 13.7242 66.0611 13.0905 66.0611C12.4568 66.0611 11.9663 65.8297 11.5347 65.3669C11.1053 64.9063 10.8905 64.3404 10.8905 63.6716C10.8905 63.0027 11.1053 62.4389 11.5347 61.9762C11.9663 61.5134 12.4863 61.282 13.0905 61.282C13.6947 61.282 14.2147 61.5029 14.5642 61.9425V61.4103Z" fill="white"/>
<path d="M19.1095 66.0611C18.4274 66.0611 17.8568 65.8318 17.4021 65.3753C16.9474 64.9147 16.7221 64.3489 16.7221 63.6737C16.7221 62.9985 16.9495 62.4326 17.4021 61.9741C17.8568 61.5134 18.4274 61.2841 19.1095 61.2841C19.5495 61.2841 19.9516 61.3914 20.3137 61.6018C20.6758 61.8121 20.9495 62.094 21.139 62.4495L20.1326 63.0384C20.0421 62.8533 19.9053 62.7061 19.7221 62.5988C19.5368 62.4894 19.3305 62.4347 19.1032 62.4347C18.7516 62.4347 18.4611 62.5504 18.2316 62.7839C18.0021 63.0153 17.8905 63.3119 17.8905 63.6737C17.8905 64.0355 18.0042 64.3236 18.2316 64.555C18.4611 64.7864 18.7516 64.9042 19.1032 64.9042C19.3368 64.9042 19.5474 64.8516 19.7326 64.7464C19.9179 64.6412 20.0526 64.4961 20.1432 64.3089L21.1558 64.8873C20.9558 65.2428 20.6758 65.5268 20.3137 65.7413C19.9516 65.9559 19.5516 66.0632 19.1095 66.0632V66.0611Z" fill="white"/>
<path d="M22.9768 63.2467H25.2863C25.2189 62.9375 25.08 62.7103 24.8716 62.5609C24.6632 62.4095 24.4253 62.3338 24.16 62.3338C23.8463 62.3338 23.5853 62.4137 23.381 62.5736C23.1768 62.7334 23.0421 62.9585 22.9768 63.2467ZM22.9937 64.1511C23.1516 64.7191 23.5768 65.003 24.2695 65.003C24.7158 65.003 25.0568 64.8516 25.2863 64.5487L26.2274 65.0914C25.7811 65.7371 25.1221 66.0611 24.2526 66.0611C23.5032 66.0611 22.9032 65.836 22.4505 65.3838C21.9979 64.9294 21.7726 64.3594 21.7726 63.6716C21.7726 62.9837 21.9958 62.4221 22.44 61.9657C22.8863 61.5113 23.4611 61.282 24.16 61.282C24.8589 61.282 25.3726 61.5113 25.8042 61.972C26.2358 62.4305 26.4526 62.9963 26.4526 63.6716C26.4526 63.823 26.4379 63.9829 26.4063 64.1511H22.9916H22.9937Z" fill="white"/>
<path d="M7.30526 67.7018V68.8944H5.59579V74.031H4.34526V68.8944H2.64421V67.7018H7.30526Z" fill="white"/>
<path d="M8.34105 72.5208C8.57263 72.7563 8.86315 72.872 9.21263 72.872C9.5621 72.872 9.85473 72.7563 10.0905 72.5208C10.3263 72.2852 10.4463 71.9844 10.4463 71.6247C10.4463 71.265 10.3284 70.9663 10.0905 70.7307C9.85473 70.4951 9.5621 70.3752 9.21263 70.3752C8.86315 70.3752 8.57263 70.493 8.34105 70.7307C8.10947 70.9663 7.99157 71.2629 7.99157 71.6247C7.99157 71.9865 8.10736 72.2852 8.34105 72.5208ZM10.9179 73.318C10.4526 73.7807 9.8842 74.0121 9.21473 74.0121C8.54526 74.0121 7.97894 73.7807 7.51789 73.318C7.05684 72.8552 6.82736 72.2915 6.82736 71.6226C6.82736 70.9537 7.05684 70.39 7.51789 69.9272C7.97894 69.4644 8.54526 69.2331 9.21473 69.2331C9.8842 69.2331 10.4526 69.4644 10.9179 69.9272C11.3832 70.39 11.6147 70.9558 11.6147 71.6226C11.6147 72.2894 11.381 72.8573 10.9179 73.318Z" fill="white"/>
<path d="M4.54315 82.0872L2.76631 75.758H4.08L5.29263 80.4508L6.61473 75.758H7.68421L9.01263 80.4508L10.2274 75.758H11.5389L9.76631 82.0872H8.34526L7.14736 77.9098L5.96421 82.0872H4.54315Z" fill="white"/>
<path d="M12.9326 80.638C13.1642 80.8736 13.4547 80.9892 13.8042 80.9892C14.1537 80.9892 14.4484 80.8736 14.6821 80.638C14.9179 80.4024 15.0379 80.1016 15.0379 79.7398C15.0379 79.378 14.92 79.0814 14.6821 78.8458C14.4463 78.6102 14.1537 78.4903 13.8042 78.4903C13.4547 78.4903 13.1642 78.6081 12.9326 78.8458C12.6989 79.0814 12.5832 79.378 12.5832 79.7398C12.5832 80.1016 12.6989 80.4003 12.9326 80.638ZM15.5074 81.4373C15.0421 81.9 14.4737 82.1314 13.8042 82.1314C13.1347 82.1314 12.5684 81.9 12.1074 81.4373C11.6463 80.9766 11.4168 80.4108 11.4168 79.7419C11.4168 79.073 11.6463 78.5093 12.1074 78.0465C12.5684 77.5859 13.1347 77.3524 13.8042 77.3524C14.4737 77.3524 15.0421 77.5838 15.5074 78.0465C15.9726 78.5093 16.2042 79.0751 16.2042 79.7419C16.2042 80.4087 15.9705 80.9766 15.5074 81.4373Z" fill="white"/>
<path d="M18.1853 78.3431C18.2947 78.0528 18.4758 77.8362 18.7242 77.6931C18.9747 77.5459 19.2547 77.4723 19.5642 77.4723V78.7764C19.2063 78.7364 18.8863 78.808 18.6063 78.9931C18.3242 79.1803 18.1853 79.4895 18.1853 79.9228V82.0851H17.0168V77.5627H18.1853V78.341V78.3431Z" fill="white"/>
<path d="M24.56 82.0662H23.2021L21.5537 80.0111V82.0662H20.3853V75.7348H21.5537V79.5316L23.1137 77.5438H24.5074L22.6842 79.7777L24.56 82.0662Z" fill="white"/>
<path d="M25.8779 80.9724V81.2774H26.0884C26.1263 81.2774 26.1579 81.2627 26.1832 81.2354C26.2105 81.2038 26.2253 81.168 26.2253 81.126C26.2253 81.0839 26.2105 81.046 26.1832 81.0187C26.1579 80.9892 26.1242 80.9724 26.0884 80.9724H25.8779ZM26.24 81.8138L26.0316 81.4562H25.8779V81.8138H25.6737V80.781H26.0884C26.1831 80.781 26.2631 80.8147 26.3284 80.882C26.3958 80.9472 26.4316 81.0271 26.4316 81.1218C26.4316 81.1849 26.4126 81.2459 26.3747 81.2985C26.3389 81.3531 26.2905 81.3952 26.2295 81.4226L26.4589 81.8096H26.2379L26.24 81.8138Z" fill="white"/>
<path d="M26 80.5622C26.3874 80.5622 26.7074 80.8778 26.7074 81.269C26.7074 81.6602 26.3895 81.9758 26 81.9758C25.6105 81.9758 25.2926 81.656 25.2926 81.269C25.2926 80.882 25.6105 80.5622 26 80.5622ZM26 80.3014C25.4632 80.3014 25.0337 80.7326 25.0337 81.2669C25.0337 81.8012 25.4653 82.2324 26 82.2324C26.5347 82.2324 26.9663 81.7991 26.9663 81.2669C26.9663 80.7347 26.5347 80.3014 26 80.3014Z" fill="white"/>
<path d="M4.32 87.3353C4.58737 87.3353 4.8379 87.3732 5.07369 87.451C5.30947 87.5289 5.52 87.6382 5.70526 87.7834C5.89053 87.9285 6.04211 88.1052 6.16632 88.3134C6.29053 88.5217 6.37474 88.7552 6.41263 89.016L5.46316 89.098C5.40211 88.7825 5.26737 88.5448 5.06105 88.385C4.85474 88.223 4.5979 88.141 4.29053 88.141C4.09684 88.141 3.92 88.1767 3.76 88.2461C3.60211 88.3134 3.46737 88.4123 3.35579 88.5385C3.24421 88.6626 3.15579 88.8162 3.09474 88.9992C3.03369 89.1801 3.00211 89.3799 3.00211 89.605C3.00211 89.8448 3.03579 90.0551 3.10105 90.236C3.16842 90.4169 3.26105 90.5683 3.37684 90.6924C3.49263 90.8166 3.62737 90.9091 3.78526 90.9722C3.94316 91.0332 4.11369 91.0648 4.29474 91.0648C4.5979 91.0648 4.85263 90.9848 5.06105 90.8292C5.26947 90.6693 5.40211 90.4358 5.45895 90.1287L6.41684 90.2108C6.37263 90.4716 6.28842 90.703 6.16421 90.907C6.04 91.111 5.88842 91.2856 5.70316 91.4287C5.52 91.5717 5.31158 91.6811 5.07369 91.7568C4.8379 91.8325 4.58947 91.8725 4.32421 91.8725C4.00211 91.8725 3.70316 91.8199 3.42526 91.7189C3.15158 91.6138 2.91369 91.4644 2.71158 91.2688C2.51158 91.0732 2.35579 90.8355 2.24421 90.5557C2.13263 90.276 2.07579 89.9583 2.07579 89.605C2.07579 89.2516 2.13263 88.9298 2.24421 88.6479C2.35579 88.366 2.51158 88.1283 2.71158 87.9348C2.91369 87.7392 3.14947 87.592 3.42316 87.491C3.69684 87.3879 3.99579 87.3374 4.3179 87.3374L4.32 87.3353Z" fill="white"/>
<path d="M8.43368 89.3736C8.25052 89.3736 8.10104 89.4283 7.98947 89.5334C7.87789 89.6386 7.81683 89.788 7.8042 89.9836H9.02736C9.02104 89.7964 8.96841 89.647 8.87157 89.5377C8.77473 89.4283 8.62736 89.3736 8.43157 89.3736H8.43368ZM7.80631 90.5557C7.81262 90.745 7.87157 90.8944 7.98104 91.0059C8.09262 91.1173 8.24631 91.1741 8.4421 91.1741C8.59157 91.1741 8.71368 91.1447 8.81052 91.0858C8.90736 91.0269 8.97052 90.9449 9.0021 90.8397L9.86947 90.8818C9.83999 91.0269 9.78526 91.1594 9.70105 91.2793C9.61894 91.3971 9.51578 91.5023 9.39157 91.5906C9.26736 91.679 9.12631 91.7484 8.96841 91.7989C8.81052 91.8472 8.6421 91.8704 8.46525 91.8704C8.23578 91.8704 8.02104 91.8346 7.82736 91.7631C7.63157 91.6895 7.46525 91.5843 7.32631 91.4476C7.18947 91.3088 7.0842 91.1447 7.00631 90.947C6.92841 90.7492 6.89052 90.5305 6.89052 90.2865C6.89052 90.0425 6.92841 89.8174 7.00631 89.6218C7.0821 89.4262 7.18947 89.2621 7.32631 89.1254C7.46525 88.9866 7.62736 88.8814 7.81683 88.8099C8.00631 88.7383 8.21262 88.7005 8.4421 88.7005C8.67157 88.7005 8.86104 88.7341 9.03999 88.8014C9.21894 88.8709 9.37262 88.9697 9.50104 89.1001C9.62736 89.2306 9.72631 89.3883 9.79368 89.5776C9.86315 89.7669 9.89894 89.9773 9.89894 90.2129V90.5536H7.80631V90.5557Z" fill="white"/>
<path d="M12.1979 89.5608C11.9495 89.5608 11.7537 89.626 11.6084 89.7543C11.4632 89.8805 11.3916 90.0509 11.3916 90.2612V91.8052H10.5305V88.7615H11.3621V89.1064C11.4274 89.0055 11.5242 88.9171 11.6526 88.8435C11.7811 88.7699 11.9642 88.732 12.1979 88.732V89.5608Z" fill="white"/>
<path d="M13.8316 90.6104C13.8316 90.7787 13.8779 90.8986 13.9705 90.968C14.0632 91.0374 14.1705 91.0711 14.2926 91.0711C14.3537 91.0711 14.4042 91.0711 14.4463 91.0648C14.4863 91.0585 14.5242 91.05 14.5558 91.0416V91.8073C14.4947 91.8157 14.4274 91.8241 14.3579 91.8304C14.2905 91.8388 14.1979 91.843 14.0779 91.843C13.9137 91.843 13.7621 91.822 13.6232 91.7799C13.4863 91.74 13.3705 91.6769 13.2737 91.5948C13.1768 91.5128 13.1011 91.4055 13.0463 91.2751C12.9937 91.1468 12.9663 90.9932 12.9663 90.8145L12.9726 89.4767H12.4211V88.7362H12.9811L12.9874 87.7266H13.8463V88.7362H14.5537V89.4767H13.8358L13.8295 90.6083L13.8316 90.6104Z" fill="white"/>
<path d="M15.0968 91.8052V88.7615H15.9579V91.8052H15.0968ZM15.5284 87.247C15.6737 87.247 15.7958 87.2975 15.8968 87.3985C15.9979 87.4973 16.0484 87.6214 16.0484 87.7666C16.0484 87.9117 15.9979 88.0274 15.8968 88.1283C15.7958 88.2293 15.6737 88.2798 15.5284 88.2798C15.3832 88.2798 15.2611 88.2293 15.1621 88.1283C15.0632 88.0274 15.0147 87.9075 15.0147 87.7666C15.0147 87.695 15.0274 87.6277 15.0547 87.5667C15.0821 87.5036 15.12 87.4489 15.1663 87.4027C15.2147 87.3543 15.2695 87.3164 15.3305 87.2912C15.3916 87.2638 15.4568 87.2491 15.5284 87.2491V87.247Z" fill="white"/>
<path d="M18.2316 87.1944C18.2968 87.1944 18.3516 87.1944 18.3958 87.1986C18.4421 87.2007 18.4863 87.2049 18.5305 87.2112V87.9538C18.5053 87.9496 18.4737 87.9453 18.4421 87.9432C18.4105 87.9432 18.3747 87.939 18.3305 87.939C18.181 87.939 18.0589 87.9832 17.9621 88.0737C17.8653 88.162 17.8168 88.2777 17.8168 88.4228V88.7615H18.5242V89.5019H17.8168V91.8052H16.9621V89.5019H16.4105V88.7615H16.9621V88.4502C16.9621 88.2588 16.9916 88.0842 17.0547 87.9306C17.1158 87.7771 17.2 87.6467 17.3116 87.5352C17.4232 87.4237 17.5537 87.3417 17.7095 87.2828C17.8653 87.2239 18.04 87.1944 18.2337 87.1944H18.2316Z" fill="white"/>
<path d="M19.0568 91.8052V88.7615H19.9179V91.8052H19.0568ZM19.4863 87.247C19.6316 87.247 19.7537 87.2975 19.8547 87.3985C19.9558 87.4973 20.0063 87.6214 20.0063 87.7666C20.0063 87.9117 19.9558 88.0274 19.8547 88.1283C19.7537 88.2293 19.6316 88.2798 19.4863 88.2798C19.341 88.2798 19.221 88.2293 19.1221 88.1283C19.0232 88.0274 18.9747 87.9075 18.9747 87.7666C18.9747 87.695 18.9874 87.6277 19.0147 87.5667C19.0421 87.5036 19.08 87.4489 19.1263 87.4027C19.1747 87.3543 19.2295 87.3164 19.2905 87.2912C19.3516 87.2638 19.4168 87.2491 19.4884 87.2491L19.4863 87.247Z" fill="white"/>
<path d="M22.0737 88.7026C22.2589 88.7026 22.4316 88.7278 22.5937 88.7825C22.7579 88.8351 22.9032 88.9129 23.0316 89.016C23.1579 89.117 23.2632 89.2411 23.3474 89.3883C23.4337 89.5335 23.4905 89.6975 23.5179 89.8805L22.6758 89.952C22.6568 89.7943 22.5916 89.6702 22.4821 89.5776C22.3747 89.4851 22.2379 89.4388 22.0737 89.4388C21.8716 89.4388 21.7053 89.5124 21.5768 89.6597C21.4463 89.8069 21.3832 90.0172 21.3832 90.2865C21.3832 90.5557 21.4484 90.764 21.5768 90.9112C21.7053 91.0563 21.8716 91.1279 22.0737 91.1279C22.2421 91.1279 22.379 91.0837 22.4842 90.9975C22.5916 90.907 22.6568 90.7871 22.6779 90.6336L23.5179 90.7135C23.4842 90.8923 23.4274 91.0542 23.3432 91.1994C23.2611 91.3424 23.1579 91.4644 23.0295 91.5654C22.9032 91.6642 22.7579 91.7421 22.5958 91.7947C22.4358 91.8472 22.2611 91.8725 22.0716 91.8725C21.8484 91.8725 21.64 91.8367 21.4505 91.7652C21.2589 91.6916 21.0947 91.5864 20.9537 91.4518C20.8147 91.3172 20.7074 91.151 20.6274 90.9554C20.5474 90.7577 20.5095 90.5368 20.5095 90.2886C20.5095 90.0404 20.5495 89.8132 20.6274 89.6176C20.7074 89.4199 20.8126 89.2537 20.9495 89.117C21.0884 88.9823 21.2526 88.8793 21.4463 88.8078C21.6379 88.7383 21.8484 88.7026 22.0716 88.7026H22.0737Z" fill="white"/>
<path d="M25.2253 90.5873C25.0947 90.5957 24.9895 90.6251 24.9053 90.6735C24.8211 90.7198 24.7811 90.7976 24.7811 90.907C24.7811 91.0101 24.8147 91.0816 24.88 91.1236C24.9474 91.1636 25.0337 91.1825 25.1368 91.1825C25.2947 91.1825 25.4253 91.1426 25.5284 91.0605C25.6337 90.9764 25.6863 90.8544 25.6863 90.6882V90.5578L25.2253 90.5873ZM25.2779 88.6815C25.6905 88.6815 26.0042 88.7846 26.2189 88.9908C26.4358 89.1969 26.5453 89.5019 26.5453 89.9037V91.7841H25.7158V91.538C25.6274 91.6285 25.52 91.7021 25.3937 91.761C25.2653 91.8199 25.1137 91.8493 24.9368 91.8493C24.6295 91.8493 24.3853 91.7736 24.2 91.6201C24.0147 91.4665 23.9242 91.2435 23.9242 90.9491C23.9242 90.7787 23.9579 90.6356 24.0232 90.5221C24.0905 90.4064 24.1811 90.3138 24.2926 90.2423C24.4042 90.1708 24.5326 90.1182 24.68 90.0845C24.8253 90.0509 24.9811 90.032 25.1432 90.0214L25.6863 89.992V89.8742C25.6863 89.5608 25.5558 89.4051 25.2905 89.4051C25.1389 89.4051 25.0295 89.4472 24.9642 89.5292C24.8989 89.6113 24.8653 89.7017 24.8653 89.8048L24.0042 89.769C24.0042 89.6365 24.0337 89.504 24.0926 89.3736C24.1516 89.2453 24.2358 89.1296 24.3453 89.0244C24.4547 88.9192 24.5874 88.8372 24.7432 88.7741C24.9011 88.711 25.0779 88.6794 25.2758 88.6794L25.2779 88.6815Z" fill="white"/>
<path d="M28.7116 89.4598C28.4968 89.4598 28.32 89.5334 28.181 89.6807C28.0421 89.8279 27.9747 90.0383 27.9747 90.3096C27.9747 90.581 28.0442 90.7871 28.181 90.9343C28.32 91.0795 28.4947 91.151 28.7116 91.151C28.9284 91.151 29.0968 91.0837 29.2316 90.947C29.3642 90.8123 29.4316 90.6188 29.4316 90.3727V90.2381C29.4316 89.9899 29.3642 89.8006 29.2316 89.666C29.0968 89.5313 28.9242 89.4619 28.7116 89.4619V89.4598ZM29.4779 91.8262V91.5128C29.3979 91.6159 29.2821 91.7042 29.1263 91.7799C28.9726 91.8535 28.7874 91.8914 28.5705 91.8914C28.3537 91.8914 28.1537 91.8535 27.9747 91.7799C27.7979 91.7063 27.6442 91.599 27.5137 91.4581C27.3832 91.3193 27.2842 91.151 27.2105 90.9575C27.1389 90.7619 27.101 90.5452 27.101 90.3075C27.101 90.0698 27.1368 89.849 27.2105 89.6575C27.2821 89.4619 27.3832 89.2958 27.5137 89.1569C27.6421 89.0181 27.7958 88.9087 27.9747 88.8351C28.1537 88.7615 28.3537 88.7236 28.5705 88.7236C28.7684 88.7236 28.9431 88.7552 29.0905 88.8183C29.24 88.8793 29.3537 88.955 29.4316 89.0454V87.2512H30.2863V91.8262H29.4779Z" fill="white"/>
<path d="M32.1937 90.6083C32.0632 90.6167 31.9579 90.6462 31.8737 90.6946C31.7895 90.7408 31.7495 90.8187 31.7495 90.928C31.7495 91.0311 31.7832 91.1047 31.8484 91.1447C31.9158 91.1847 32.0021 91.2036 32.1053 91.2036C32.2632 91.2036 32.3937 91.1636 32.4968 91.0816C32.6021 90.9996 32.6547 90.8755 32.6547 90.7114V90.581L32.1937 90.6104V90.6083ZM32.2463 88.7026C32.659 88.7026 32.9726 88.8057 33.1874 89.0118C33.4042 89.2179 33.5137 89.5229 33.5137 89.9247V91.8052H32.6842V91.5591C32.5958 91.6495 32.4884 91.7231 32.3621 91.782C32.2337 91.8409 32.0821 91.8704 31.9053 91.8704C31.5979 91.8704 31.3537 91.7947 31.1684 91.6411C30.9832 91.4876 30.8926 91.2646 30.8926 90.9701C30.8926 90.7997 30.9263 90.6567 30.9916 90.5431C31.059 90.4274 31.1495 90.3349 31.2611 90.2633C31.3726 90.1918 31.5032 90.1392 31.6484 90.1056C31.7937 90.0719 31.9495 90.053 32.1116 90.0425L32.6547 90.013V89.8952C32.6547 89.5818 32.5242 89.4262 32.259 89.4262C32.1074 89.4262 32 89.4682 31.9326 89.5503C31.8674 89.6323 31.8337 89.7228 31.8337 89.8258L30.9726 89.7901C30.9726 89.6576 31.0021 89.525 31.0611 89.3946C31.12 89.2663 31.2042 89.1506 31.3137 89.0455C31.4232 88.9403 31.5558 88.8561 31.7116 88.7951C31.8695 88.732 32.0463 88.7005 32.2442 88.7005L32.2463 88.7026Z" fill="white"/>
<path d="M12.8716 104.624H13.3853C13.4821 104.624 13.56 104.603 13.6189 104.56C13.6779 104.516 13.7074 104.445 13.7074 104.344C13.7074 104.243 13.6779 104.171 13.6189 104.127C13.56 104.081 13.4842 104.058 13.3916 104.058H12.8716V104.624ZM12.8716 103.643H13.341C13.421 103.643 13.4863 103.624 13.5347 103.584C13.5853 103.542 13.6105 103.477 13.6105 103.387C13.6105 103.296 13.5831 103.231 13.5284 103.189C13.4758 103.145 13.4042 103.124 13.3137 103.124H12.8695V103.643H12.8716ZM13.3705 102.697C13.4779 102.697 13.5768 102.709 13.6674 102.737C13.7579 102.762 13.8358 102.804 13.901 102.859C13.9663 102.913 14.0168 102.983 14.0526 103.065C14.0905 103.147 14.1095 103.242 14.1095 103.355C14.1095 103.469 14.0863 103.561 14.0442 103.637C14.0021 103.715 13.9474 103.774 13.88 103.818C13.9705 103.854 14.0463 103.917 14.1095 104.009C14.1747 104.102 14.2084 104.222 14.2084 104.371C14.2084 104.485 14.1895 104.586 14.1495 104.67C14.1116 104.754 14.0589 104.823 13.9916 104.884C13.9263 104.941 13.8463 104.985 13.7516 105.015C13.6568 105.044 13.5558 105.057 13.4463 105.057H12.3874V102.697H13.3747H13.3705Z" fill="white"/>
<path d="M15.5453 103.776C15.64 103.776 15.7179 103.749 15.779 103.694C15.84 103.639 15.8716 103.559 15.8716 103.454C15.8716 103.349 15.84 103.267 15.779 103.21C15.7179 103.153 15.64 103.124 15.5453 103.124H15.0821V103.774H15.5453V103.776ZM15.48 104.209H15.0842V105.057H14.5937V102.697H15.6042C15.7158 102.697 15.819 102.716 15.9137 102.749C16.0084 102.783 16.0884 102.831 16.1537 102.895C16.2211 102.958 16.2737 103.038 16.3116 103.13C16.3495 103.225 16.3684 103.332 16.3684 103.452C16.3684 103.616 16.3347 103.757 16.2674 103.873C16.2 103.986 16.1053 104.072 15.9874 104.129L16.4905 105.057H15.9411L15.48 104.209Z" fill="white"/>
<path d="M18.0926 104.205L17.7726 103.45L17.4526 104.205H18.0905H18.0926ZM18.4568 105.057L18.2632 104.603H17.28L17.0863 105.057H16.5537L17.5663 102.697H17.9768L18.9937 105.057H18.4568Z" fill="white"/>
<path d="M19.8779 102.661C20.0042 102.661 20.1221 102.678 20.2274 102.709C20.3326 102.741 20.4232 102.791 20.501 102.855C20.581 102.918 20.64 102.996 20.6821 103.084C20.7263 103.172 20.7495 103.273 20.7537 103.387L20.2526 103.414C20.2505 103.313 20.2168 103.233 20.1537 103.174C20.0905 103.115 20 103.086 19.8884 103.086C19.7768 103.086 19.6863 103.111 19.6253 103.166C19.5663 103.218 19.5368 103.286 19.5368 103.37C19.5368 103.416 19.5453 103.454 19.5621 103.486C19.581 103.515 19.6084 103.54 19.6442 103.566C19.6821 103.589 19.7284 103.608 19.7853 103.624C19.8442 103.643 19.9137 103.66 19.9958 103.681C20.1158 103.713 20.2253 103.746 20.3242 103.782C20.4232 103.82 20.5074 103.864 20.5768 103.917C20.6484 103.969 20.7032 104.033 20.741 104.108C20.7789 104.18 20.7979 104.27 20.7979 104.375C20.7979 104.499 20.7747 104.609 20.7284 104.701C20.6821 104.792 20.6189 104.865 20.541 104.924C20.461 104.983 20.3705 105.027 20.2653 105.055C20.16 105.082 20.0484 105.097 19.9305 105.097C19.7937 105.097 19.6674 105.08 19.5516 105.048C19.4379 105.015 19.3368 104.969 19.2526 104.903C19.1684 104.838 19.1032 104.758 19.0547 104.664C19.0084 104.569 18.9832 104.462 18.9832 104.338L19.48 104.312C19.48 104.367 19.4947 104.417 19.5158 104.464C19.5389 104.508 19.5726 104.546 19.6105 104.579C19.6505 104.611 19.6968 104.634 19.7516 104.651C19.8063 104.666 19.8653 104.674 19.9284 104.674C20.0379 104.674 20.1263 104.653 20.1958 104.611C20.2653 104.569 20.301 104.499 20.301 104.401C20.301 104.31 20.2589 104.245 20.1768 104.203C20.0947 104.159 19.9768 104.117 19.8189 104.075C19.7116 104.049 19.6105 104.02 19.5158 103.988C19.421 103.955 19.3389 103.915 19.2653 103.864C19.1937 103.814 19.1389 103.751 19.0968 103.673C19.0568 103.597 19.0379 103.5 19.0379 103.387C19.0379 103.29 19.0547 103.2 19.0863 103.111C19.12 103.025 19.1726 102.947 19.2442 102.882C19.3137 102.817 19.4021 102.764 19.5074 102.724C19.6126 102.684 19.7347 102.665 19.8758 102.665L19.8779 102.661Z" fill="white"/>
<path d="M21.6737 102.697H21.1832V105.057H21.6737V102.697Z" fill="white"/>
<path d="M23.6295 104.624V105.057H22.1095V102.697H22.6V104.624H23.6295Z" fill="white"/>
</g>
<g clip-path="url(#clip2_1_3)">
<path d="M63 49.4648C72.0933 49.4648 79.4648 42.0933 79.4648 33C79.4648 23.9067 72.0933 16.5352 63 16.5352C53.9067 16.5352 46.5352 23.9067 46.5352 33C46.5352 42.0933 53.9067 49.4648 63 49.4648Z" fill="#00284D"/>
<path d="M63 50.0003C60.7053 50.0003 58.4789 49.5508 56.3826 48.6642C54.358 47.8079 52.5403 46.5824 50.9791 45.0212C49.4179 43.46 48.1924 41.642 47.3361 39.6177C46.4492 37.5211 46 35.2947 46 33C46 30.7053 46.4496 28.4789 47.3361 26.3826C48.1924 24.358 49.4179 22.5403 50.9791 20.9791C52.5403 19.4179 54.3583 18.1924 56.3826 17.3361C58.4789 16.4492 60.7053 16 63 16C65.2947 16 67.5211 16.4496 69.6174 17.3361C71.642 18.1924 73.4597 19.4179 75.0209 20.9791C76.5821 22.5403 77.8076 24.3583 78.6639 26.3826C79.5504 28.4789 80 30.7053 80 33C80 35.2947 79.5504 37.5211 78.6639 39.6174C77.8076 41.642 76.5821 43.4597 75.0209 45.0209C73.4597 46.5821 71.6417 47.8076 69.6174 48.6639C67.5211 49.5504 65.2947 50 63 50V50.0003ZM63 17.0707C54.2167 17.0707 47.0707 24.2167 47.0707 33C47.0707 41.7833 54.2167 48.9293 63 48.9293C71.7833 48.9293 78.9293 41.7833 78.9293 33C78.9293 24.2167 71.7833 17.0707 63 17.0707Z" fill="#5ABDFE"/>
<path d="M63 45.5699C62.8259 45.5699 62.6524 45.5665 62.479 45.5592C61.2065 45.5067 59.9557 45.2608 58.7544 44.8267C57.4262 44.3469 56.194 43.6505 55.0919 42.7577C53.9897 41.8649 53.0534 40.8033 52.3089 39.6032C51.5436 38.3698 51.003 37.0243 50.7024 35.6038L50.9643 35.5481C50.9643 35.5481 50.9643 35.5487 50.9643 35.5491C52.1332 41.0442 56.9461 45.0703 62.5152 45.2929C62.8001 45.3042 63.0872 45.3055 63.3727 45.297C69.0344 45.1245 73.9156 41.0344 75.0555 35.4508L75.3178 35.5044C75.3178 35.5044 75.3174 35.5062 75.3171 35.5072C74.1558 41.2126 69.1723 45.3873 63.3834 45.5646C63.3834 45.5646 63.3816 45.5646 63.3809 45.5646C63.2607 45.5684 63.1401 45.5702 63.0192 45.5702H62.9994L63 45.5699Z" fill="#5ABDFE"/>
<path d="M74.9592 30.201C74.6444 28.8504 74.1079 27.572 73.365 26.4012C72.622 25.2304 71.6933 24.2006 70.6053 23.3408L70.7706 23.1302C71.8897 24.0035 72.8427 25.0544 73.6033 26.2529C74.3626 27.4501 74.9069 28.7582 75.2202 30.1412L74.9592 30.201Z" fill="#5ABDFE"/>
<path d="M51.0458 29.9907L50.7864 29.9249C51.1176 28.6024 51.6585 27.3497 52.3936 26.2016C53.1287 25.0534 54.04 24.0382 55.1025 23.1838L55.2707 23.3919C54.2333 24.2343 53.3427 25.2319 52.6231 26.3574C51.9062 27.4785 51.3758 28.7009 51.0462 29.9904L51.0458 29.9907Z" fill="#5ABDFE"/>
<path d="M57.4407 23.6182C57.2546 23.7161 57.0749 23.7592 56.9011 23.7467C56.7273 23.7341 56.5674 23.6736 56.4216 23.5647C56.2756 23.4558 56.1522 23.3053 56.0508 23.1132C55.9497 22.9212 55.8953 22.7342 55.8877 22.5522C55.8801 22.3703 55.9204 22.2041 56.0086 22.0539C56.0964 21.9037 56.2334 21.7794 56.4194 21.6815C56.6338 21.5684 56.84 21.5291 57.0377 21.5634C57.2357 21.5977 57.4105 21.6919 57.5622 21.8461L57.3274 22.064C57.2228 21.9532 57.1045 21.8848 56.9729 21.8597C56.8413 21.8345 56.7018 21.8606 56.5548 21.938C56.4232 22.0076 56.3291 22.0951 56.2724 22.2006C56.2161 22.3064 56.1937 22.4241 56.2057 22.5541C56.2176 22.6842 56.2611 22.8205 56.336 22.9624C56.41 23.1047 56.4972 23.2178 56.5979 23.3012C56.6987 23.3846 56.8085 23.4328 56.9282 23.4457C57.0478 23.4586 57.1734 23.4303 57.305 23.361C57.452 23.2832 57.5524 23.1828 57.6056 23.0597C57.6589 22.9366 57.6696 22.8006 57.6378 22.6527L57.9504 22.5818C57.9919 22.7943 57.9708 22.9917 57.8874 23.1743C57.804 23.3569 57.6548 23.5049 57.4407 23.6179V23.6182Z" fill="white"/>
<path d="M58.484 23.0651L57.7892 21.0814L59.0566 20.6375L59.1517 20.9089L58.1723 21.2521L58.3672 21.8087L59.1813 21.5234L59.2764 21.7948L58.4623 22.08L58.677 22.693L59.6564 22.3498L59.7514 22.6212L58.484 23.0651Z" fill="white"/>
<path d="M60.0225 22.5437L59.611 20.4827L60.444 20.3164C60.4642 20.3123 60.489 20.3082 60.5189 20.3038C60.5489 20.2994 60.5775 20.2969 60.6052 20.2963C60.7233 20.2916 60.8268 20.3117 60.9156 20.3564C61.0044 20.4011 61.0771 20.4657 61.1335 20.5497C61.1898 20.6338 61.2292 20.731 61.2512 20.8419C61.2839 21.0059 61.2701 21.1557 61.21 21.2914C61.1495 21.4271 61.0384 21.5263 60.8766 21.5895L60.7579 21.6283L60.1739 21.7447L60.3216 22.4849L60.0225 22.5447V22.5437ZM60.1176 21.4605L60.6402 21.3563C60.6594 21.3525 60.6801 21.3471 60.7031 21.3405C60.7261 21.3339 60.7475 21.326 60.7677 21.3172C60.8259 21.2908 60.8697 21.2543 60.8992 21.2083C60.9288 21.1623 60.9465 21.1123 60.9528 21.0584C60.9587 21.0046 60.9569 20.9524 60.9468 20.902C60.9367 20.8513 60.9184 20.8028 60.8923 20.7559C60.8662 20.709 60.8306 20.67 60.7856 20.6388C60.7406 20.6076 60.6861 20.5909 60.6222 20.5887C60.6002 20.5872 60.5772 20.5878 60.5533 20.5906C60.5297 20.5935 60.5079 20.5966 60.489 20.6004L59.9664 20.7046L60.1172 21.4605H60.1176ZM61.2279 22.3032L60.654 21.5455L60.9405 21.4079L61.5701 22.2349L61.2279 22.3032Z" fill="white"/>
<path d="M62.3449 22.1855L62.2451 20.374L61.5471 20.4125L61.5314 20.1253L63.2323 20.0315L63.2481 20.3186L62.5498 20.357L62.6496 22.1685L62.3449 22.1852V22.1855Z" fill="white"/>
<path d="M63.5623 22.1631L63.652 20.0633L63.9567 20.0762L63.867 22.176L63.5623 22.1631Z" fill="white"/>
<path d="M64.2608 22.1927L64.5341 20.1087L65.7685 20.2705L65.7288 20.573L64.7967 20.4509L64.7195 21.0383L65.4779 21.1378L65.4379 21.4416L64.6795 21.3421L64.5627 22.2321L64.2602 22.1924L64.2608 22.1927Z" fill="white"/>
<path d="M65.7357 22.421L66.1903 20.3687L66.4882 20.4348L66.0336 22.4871L65.7357 22.421Z" fill="white"/>
<path d="M66.4164 22.5671L67.063 20.567L68.3408 20.9801L68.2524 21.2536L67.2648 20.9344L67.0835 21.4954L67.9042 21.7608L67.8157 22.0344L66.995 21.769L66.7951 22.387L67.7827 22.7062L67.6942 22.9798L66.4164 22.5667V22.5671Z" fill="white"/>
<path d="M67.9571 23.0783L68.8823 21.191L69.4735 21.4806C69.4908 21.4891 69.5233 21.5055 69.5705 21.5297C69.6177 21.554 69.6615 21.5798 69.7024 21.6075C69.8409 21.6982 69.9395 21.8121 69.9977 21.9488C70.0556 22.0857 70.0777 22.2337 70.0635 22.3933C70.0493 22.5526 70.003 22.7125 69.9247 22.8721C69.846 23.033 69.7477 23.1677 69.6306 23.2766C69.5132 23.3856 69.3829 23.4586 69.2393 23.4961C69.0957 23.5335 68.9456 23.5253 68.7891 23.4712C68.7425 23.4558 68.695 23.4369 68.6471 23.4145C68.599 23.3922 68.5662 23.3764 68.5489 23.3679L67.9577 23.0783H67.9571ZM68.3654 22.9549L68.6761 23.1073C68.7057 23.1218 68.7416 23.1384 68.7835 23.1567C68.8253 23.175 68.8634 23.1894 68.8974 23.1995C69.0026 23.2282 69.1008 23.2247 69.1927 23.1891C69.2843 23.1532 69.3677 23.0947 69.4424 23.0131C69.517 22.9316 69.5806 22.8372 69.6335 22.7295C69.6879 22.6184 69.7238 22.5085 69.7414 22.3996C69.7591 22.2906 69.7537 22.1893 69.7254 22.0958C69.697 22.0023 69.6401 21.9236 69.5541 21.86C69.5258 21.8386 69.4912 21.8168 69.4502 21.7951C69.4093 21.7734 69.3747 21.7555 69.3457 21.7416L69.035 21.5892L68.3657 22.9549H68.3654Z" fill="white"/>
<path d="M57.2688 35.7277C57.5839 35.7277 57.8682 35.803 58.1216 35.9538C58.3751 36.1046 58.5765 36.3098 58.7261 36.5702C58.8756 36.8305 58.9502 37.1261 58.9502 37.457V39.0972C58.9502 39.4419 58.8759 39.7467 58.7276 40.0114C58.5794 40.2762 58.3744 40.484 58.1128 40.6348C57.8515 40.7856 57.5518 40.8608 57.214 40.8608C56.9445 40.8608 56.693 40.8048 56.4588 40.693C56.2249 40.5812 56.0269 40.4226 55.8647 40.217L56.3203 39.8128C56.4207 39.9544 56.5498 40.0678 56.7072 40.1534C56.8646 40.239 57.0336 40.2818 57.214 40.2818C57.4331 40.2818 57.6267 40.2293 57.7945 40.1244C57.9623 40.0196 58.0936 39.8823 58.1884 39.7136C58.2831 39.5446 58.3304 39.362 58.3304 39.1655V38.1757L58.4638 38.3265C58.3222 38.5321 58.1408 38.6964 57.9192 38.8195C57.6979 38.9429 57.4567 39.0043 57.1967 39.0043C56.8907 39.0043 56.6168 38.9326 56.3747 38.7887C56.1326 38.6448 55.9409 38.4503 55.7996 38.2047C55.6579 37.9595 55.5874 37.6837 55.5874 37.3777C55.5874 37.0717 55.6639 36.7937 55.8169 36.5437C55.9699 36.2938 56.1736 36.0951 56.4282 35.9478C56.6826 35.8005 56.9631 35.7268 57.2688 35.7268V35.7277ZM57.2688 36.3168C57.0724 36.3168 56.8939 36.3643 56.733 36.4587C56.5721 36.5535 56.4437 36.6813 56.3476 36.8422C56.2516 37.0031 56.2038 37.1819 56.2038 37.378C56.2038 37.5741 56.251 37.7529 56.3458 37.9138C56.4405 38.0747 56.5683 38.2031 56.7292 38.2991C56.8901 38.3952 57.0689 38.443 57.265 38.443C57.4611 38.443 57.6406 38.3952 57.8027 38.2991C57.9649 38.2031 58.0933 38.075 58.1881 37.9138C58.2828 37.7529 58.33 37.5741 58.33 37.378C58.33 37.1819 58.2825 37.0065 58.1881 36.8453C58.0933 36.6845 57.9655 36.556 57.8046 36.46C57.6437 36.364 57.4649 36.3161 57.2688 36.3161V36.3168Z" fill="white"/>
<path d="M61.5733 40.8612C61.2537 40.8612 60.9688 40.7888 60.7188 40.6437C60.4689 40.4989 60.2715 40.3012 60.1264 40.0512C59.9812 39.8013 59.9088 39.5163 59.9088 39.1968V37.3888C59.9088 37.0693 59.9812 36.7838 60.1264 36.5328C60.2712 36.2816 60.4689 36.0842 60.7188 35.9404C60.9688 35.7965 61.2537 35.7247 61.5733 35.7247C61.8928 35.7247 62.1783 35.7965 62.4292 35.9404C62.6805 36.0842 62.8778 36.2816 63.0217 36.5328C63.1656 36.7841 63.2374 37.0693 63.2374 37.3888V39.1968C63.2374 39.5163 63.1656 39.8013 63.0217 40.0512C62.8778 40.3012 62.6805 40.4986 62.4292 40.6437C62.178 40.7885 61.8928 40.8612 61.5733 40.8612ZM61.5733 40.2757C61.7672 40.2757 61.9432 40.2288 62.1006 40.1353C62.258 40.0418 62.3836 39.9155 62.4774 39.7569C62.5709 39.5982 62.6178 39.4228 62.6178 39.2311V37.3511C62.6178 37.1571 62.5709 36.9811 62.4774 36.8237C62.3839 36.6663 62.2583 36.5407 62.1006 36.4469C61.9432 36.3534 61.7672 36.3065 61.5733 36.3065C61.3793 36.3065 61.2062 36.3534 61.0475 36.4469C60.8888 36.5404 60.7626 36.666 60.6691 36.8237C60.5756 36.9811 60.5287 37.1571 60.5287 37.3511V39.2311C60.5287 39.4228 60.5756 39.5982 60.6691 39.7569C60.7626 39.9155 60.8888 40.0418 61.0475 40.1353C61.2062 40.2288 61.3815 40.2757 61.5733 40.2757Z" fill="white"/>
<path d="M65.8604 40.8612C65.5409 40.8612 65.256 40.7888 65.006 40.6437C64.756 40.4989 64.5587 40.3012 64.4135 40.0512C64.2684 39.8013 64.196 39.5163 64.196 39.1968V37.3888C64.196 37.0693 64.2684 36.7838 64.4135 36.5328C64.5583 36.2816 64.756 36.0842 65.006 35.9404C65.256 35.7965 65.5409 35.7247 65.8604 35.7247C66.1799 35.7247 66.4655 35.7965 66.7164 35.9404C66.9676 36.0842 67.165 36.2816 67.3089 36.5328C67.4527 36.7841 67.5245 37.0693 67.5245 37.3888V39.1968C67.5245 39.5163 67.4527 39.8013 67.3089 40.0512C67.165 40.3012 66.9676 40.4986 66.7164 40.6437C66.4652 40.7885 66.1799 40.8612 65.8604 40.8612ZM65.8604 40.2757C66.0543 40.2757 66.2303 40.2288 66.3877 40.1353C66.5451 40.0418 66.6707 39.9155 66.7646 39.7569C66.8581 39.5982 66.905 39.4228 66.905 39.2311V37.3511C66.905 37.1571 66.8581 36.9811 66.7646 36.8237C66.6711 36.6663 66.5454 36.5407 66.3877 36.4469C66.2303 36.3534 66.0543 36.3065 65.8604 36.3065C65.6665 36.3065 65.4933 36.3534 65.3347 36.4469C65.176 36.5404 65.0498 36.666 64.9563 36.8237C64.8628 36.9811 64.8159 37.1571 64.8159 37.3511V39.2311C64.8159 39.4228 64.8628 39.5982 64.9563 39.7569C65.0498 39.9155 65.176 40.0418 65.3347 40.1353C65.4933 40.2288 65.6687 40.2757 65.8604 40.2757Z" fill="white"/>
<path d="M69.3432 40.7586V36.502L68.4151 37.0636V36.3821L69.3432 35.8273H69.9631V40.7586H69.3432Z" fill="white"/>
<path d="M56.0838 33.3195V26.902H57.2959V33.3195H56.0838Z" fill="white"/>
<path d="M61.0573 33.4533C60.5819 33.4533 60.1534 33.3693 59.7716 33.2015C59.3897 33.0337 59.0765 32.7928 58.8312 32.4796C58.586 32.166 58.4308 31.7927 58.3656 31.3589L59.6312 31.1715C59.7203 31.5399 59.9044 31.8238 60.1837 32.0228C60.4629 32.2218 60.7809 32.3213 61.1372 32.3213C61.3362 32.3213 61.5295 32.2901 61.7165 32.2278C61.9038 32.1654 62.0574 32.0732 62.1777 31.9513C62.298 31.8295 62.3581 31.6793 62.3581 31.5012C62.3581 31.436 62.3483 31.3727 62.3291 31.3116C62.3096 31.2509 62.2778 31.1936 62.2334 31.1401C62.1887 31.0865 62.1258 31.0362 62.0439 30.9886C61.9621 30.9411 61.8588 30.898 61.7341 30.8593L60.0675 30.3691C59.9428 30.3335 59.798 30.2828 59.6331 30.2177C59.4681 30.1525 59.3085 30.0587 59.1539 29.9368C58.9993 29.815 58.8709 29.6538 58.7683 29.4533C58.6656 29.2528 58.6146 28.9993 58.6146 28.6933C58.6146 28.2627 58.7229 27.9044 58.9398 27.6192C59.1567 27.334 59.4464 27.1215 59.8087 26.982C60.1711 26.8425 60.5722 26.7742 61.0119 26.777C61.4546 26.783 61.8497 26.8589 62.1975 27.0043C62.5451 27.1498 62.8363 27.3617 63.0712 27.6393C63.3057 27.9173 63.4751 28.2567 63.5793 28.6578L62.269 28.8806C62.2215 28.6729 62.1336 28.4975 62.0061 28.3549C61.8783 28.2123 61.7259 28.104 61.5493 28.0297C61.3724 27.9554 61.1876 27.9154 60.9946 27.9094C60.8045 27.9035 60.6254 27.9296 60.4576 27.9875C60.2898 28.0454 60.1531 28.1295 60.0477 28.2394C59.9422 28.3492 59.8893 28.4799 59.8893 28.6316C59.8893 28.7714 59.9324 28.885 60.0187 28.9726C60.105 29.0601 60.2133 29.1309 60.3439 29.1841C60.4746 29.2376 60.6084 29.282 60.745 29.3179L61.8591 29.6211C62.0253 29.6658 62.2095 29.7243 62.4116 29.7971C62.6137 29.8698 62.8073 29.9708 62.9931 30.1002C63.1788 30.2296 63.3318 30.3996 63.4521 30.6105C63.5723 30.8215 63.6325 31.0891 63.6325 31.4127C63.6325 31.7574 63.5604 32.0581 63.4162 32.3153C63.272 32.5722 63.0781 32.7847 62.8347 32.9525C62.5911 33.1203 62.3156 33.2459 62.008 33.329C61.7004 33.4121 61.3834 33.4536 61.0567 33.4536L61.0573 33.4533Z" fill="white"/>
<path d="M67.3677 33.4533C66.7261 33.4533 66.1727 33.3136 65.7077 33.0343C65.2427 32.7551 64.8848 32.3644 64.6336 31.8623C64.3823 31.3601 64.257 30.7765 64.257 30.1109C64.257 29.4454 64.3827 28.8618 64.6336 28.3596C64.8845 27.8575 65.2424 27.4668 65.7077 27.1876C66.1727 26.9083 66.7261 26.7686 67.3677 26.7686C68.0093 26.7686 68.5628 26.9083 69.0278 27.1876C69.4927 27.4668 69.8507 27.8575 70.1019 28.3596C70.3528 28.8618 70.4784 29.4454 70.4784 30.1109C70.4784 30.7765 70.3528 31.3604 70.1019 31.8623C69.8507 32.3644 69.4927 32.7551 69.0278 33.0343C68.5628 33.3136 68.0093 33.4533 67.3677 33.4533ZM67.3677 32.3124C67.7748 32.3184 68.1135 32.2309 68.384 32.0496C68.6544 31.8682 68.8571 31.6114 68.9922 31.2786C69.1272 30.9458 69.1949 30.5567 69.1949 30.1109C69.1949 29.6652 69.1272 29.2792 68.9922 28.9521C68.8568 28.6253 68.6541 28.3713 68.384 28.1899C68.1135 28.0086 67.7748 27.9151 67.3677 27.9091C66.9607 27.9031 66.6219 27.991 66.3515 28.172C66.0811 28.3533 65.8783 28.6102 65.7433 28.943C65.6082 29.2757 65.5406 29.6649 65.5406 30.1106C65.5406 30.5564 65.6082 30.9427 65.7433 31.2695C65.8783 31.5962 66.0811 31.8503 66.3515 32.0316C66.6219 32.213 66.9607 32.3065 67.3677 32.3124Z" fill="white"/>
<path d="M75.1682 31.2588L75.6807 32.2973L76.827 32.4639L75.9978 33.2723L76.1936 34.4141L75.1682 33.8752L74.1432 34.4141L74.339 33.2723L73.5095 32.4639L74.6557 32.2973L75.1682 31.2588Z" fill="#5ABDFE"/>
<path d="M50.902 31.2468L51.4148 32.2854L52.5611 32.4519L51.7315 33.2604L51.9273 34.4022L50.902 33.8629L49.8769 34.4022L50.0728 33.2604L49.2432 32.4519L50.3895 32.2854L50.902 31.2468Z" fill="#5ABDFE"/>
<path d="M70.2398 34.5983H55.7602V34.8659H70.2398V34.5983Z" fill="#5ABDFE"/>
</g>
<g clip-path="url(#clip3_1_3)">
<path d="M63 91.4333C72.0759 91.4333 79.4333 84.0759 79.4333 75C79.4333 65.9241 72.0759 58.5667 63 58.5667C53.9241 58.5667 46.5667 65.9241 46.5667 75C46.5667 84.0759 53.9241 91.4333 63 91.4333Z" fill="#00284D"/>
<path d="M63 91.9688C60.7094 91.9688 58.4871 91.5202 56.3949 90.6353C54.3741 89.7806 52.5595 88.5572 51.0015 86.9989C49.4431 85.4405 48.2198 83.6259 47.365 81.6054C46.4801 79.5129 46.0312 77.2906 46.0312 75C46.0312 72.7094 46.4798 70.4871 47.3647 68.3949C48.2195 66.3741 49.4428 64.5595 51.0012 63.0011C52.5595 61.4428 54.3741 60.2194 56.3946 59.3647C58.4871 58.4801 60.7094 58.0312 63 58.0312C65.2906 58.0312 67.5129 58.4798 69.6051 59.3647C71.6259 60.2194 73.4405 61.4428 74.9985 63.0011C76.5569 64.5595 77.7802 66.3741 78.635 68.3949C79.5199 70.4871 79.9685 72.7094 79.9685 75C79.9685 77.2906 79.5199 79.5129 78.635 81.6051C77.7802 83.6259 76.5569 85.4405 74.9985 86.9985C73.4402 88.5569 71.6256 89.7802 69.6051 90.635C67.5129 91.5199 65.2906 91.9685 63 91.9685V91.9688ZM63 59.1022C54.234 59.1022 47.1022 66.234 47.1022 75C47.1022 83.766 54.234 90.8978 63 90.8978C71.766 90.8978 78.8978 83.766 78.8978 75C78.8978 66.234 71.766 59.1022 63 59.1022Z" fill="#5ABDFE"/>
<path d="M63 87.5463C62.825 87.5463 62.6499 87.5425 62.4755 87.5353C62.4746 87.5353 62.4733 87.5353 62.4727 87.5353C61.2052 87.4821 59.9595 87.2368 58.7626 86.8046C57.4369 86.3258 56.2069 85.631 55.107 84.7394C54.007 83.8479 53.0726 82.7888 52.3293 81.591C51.5656 80.36 51.026 79.0167 50.7257 77.5991L50.9876 77.5434C50.9876 77.5434 50.9876 77.544 50.9876 77.5443C52.1515 83.0164 56.936 87.0291 62.4783 87.2677C62.779 87.2806 63.0831 87.2825 63.3844 87.2727C69.029 87.0949 73.8942 83.0155 75.0319 77.448C75.0319 77.4474 75.0319 77.4467 75.0322 77.4461L75.2945 77.4996C74.1372 83.1924 69.1672 87.3587 63.3932 87.5406C63.2692 87.5444 63.1442 87.5466 63.0195 87.5469C63.0129 87.5469 63.0063 87.5469 62.9997 87.5469L63 87.5463Z" fill="#5ABDFE"/>
<path d="M74.9359 72.2063C74.6217 70.8583 74.0865 69.5823 73.3448 68.4138C72.6031 67.2452 71.6763 66.2176 70.5905 65.3594L70.7558 65.1488C71.8728 66.0205 72.8241 67.0692 73.5828 68.2655C74.3409 69.4605 74.884 70.7661 75.1969 72.1462L74.9359 72.206V72.2063Z" fill="#5ABDFE"/>
<path d="M51.0688 71.9964L50.8094 71.9306C51.14 70.6105 51.6799 69.3604 52.4134 68.2145C53.1472 67.0686 54.0567 66.0552 55.117 65.2023L55.2855 65.4104C54.2504 66.251 53.3613 67.2471 52.6429 68.3703C51.9273 69.4892 51.3978 70.7091 51.0688 71.996V71.9964Z" fill="#5ABDFE"/>
<path d="M57.4508 65.6368C57.2653 65.7347 57.0856 65.7775 56.9124 65.7649C56.739 65.7526 56.5794 65.6922 56.4336 65.5833C56.2878 65.4746 56.1644 65.3245 56.0634 65.1328C55.9623 64.9413 55.9082 64.7547 55.9006 64.573C55.8934 64.3914 55.9334 64.2255 56.0212 64.0756C56.109 63.9254 56.2456 63.8017 56.4311 63.7038C56.6448 63.5911 56.8507 63.5518 57.0481 63.5858C57.2458 63.6201 57.4202 63.7139 57.5717 63.8681L57.3371 64.0857C57.2326 63.9749 57.1149 63.9072 56.9833 63.8817C56.852 63.8565 56.7128 63.8826 56.5658 63.9601C56.4345 64.0293 56.3404 64.1168 56.2841 64.2223C56.2277 64.3278 56.2054 64.4455 56.2173 64.5752C56.2293 64.7052 56.2724 64.8409 56.3473 64.9826C56.4213 65.1249 56.5085 65.2376 56.6086 65.3207C56.7091 65.4038 56.8189 65.452 56.9382 65.4649C57.0576 65.4778 57.1829 65.4495 57.3144 65.3802C57.4615 65.3028 57.5613 65.2026 57.6145 65.0796C57.6677 64.9565 57.6784 64.8211 57.6466 64.6731L57.9586 64.6026C58.0001 64.8145 57.979 65.0119 57.8956 65.1941C57.8122 65.3764 57.6636 65.5241 57.4495 65.6368H57.4508Z" fill="white"/>
<path d="M58.4925 65.0843L57.799 63.1044L59.0639 62.6615L59.1586 62.9322L58.1811 63.2747L58.3757 63.8304L59.1882 63.5458L59.283 63.8165L58.4704 64.1011L58.6848 64.7128L59.6623 64.3703L59.7571 64.641L58.4922 65.084L58.4925 65.0843Z" fill="white"/>
<path d="M60.0272 64.5642L59.6164 62.5069L60.4478 62.3407C60.468 62.3366 60.4928 62.3325 60.5224 62.3281C60.5523 62.3237 60.581 62.3211 60.6087 62.3205C60.7264 62.3158 60.83 62.3356 60.9185 62.3803C61.0072 62.425 61.0796 62.4893 61.136 62.573C61.1923 62.6567 61.2317 62.754 61.2537 62.8645C61.2865 63.0282 61.2726 63.1778 61.2125 63.3131C61.1524 63.4485 61.0415 63.5477 60.8797 63.6106L60.761 63.649L60.1783 63.7655L60.326 64.5041L60.0275 64.5639L60.0272 64.5642ZM60.1217 63.4831L60.643 63.3789C60.6622 63.3751 60.683 63.3701 60.706 63.3635C60.7289 63.3569 60.7503 63.3493 60.7705 63.3402C60.8284 63.3138 60.8725 63.2776 60.9018 63.2316C60.9314 63.1856 60.949 63.1359 60.955 63.0821C60.961 63.0282 60.9591 62.9763 60.949 62.9259C60.9389 62.8755 60.9207 62.8267 60.8945 62.7801C60.8684 62.7332 60.8328 62.6945 60.7881 62.6634C60.7434 62.6322 60.689 62.6155 60.625 62.6136C60.603 62.612 60.58 62.6127 60.5564 62.6155C60.5328 62.6183 60.5114 62.6215 60.4922 62.6253L59.9709 62.7295L60.1217 63.4838V63.4831ZM61.2301 64.324L60.6572 63.5678L60.943 63.4306L61.5714 64.2557L61.2301 64.324Z" fill="white"/>
<path d="M62.3449 64.2063L62.2451 62.3983L61.5484 62.4367L61.5327 62.1502L63.2301 62.0564L63.2459 62.3429L62.5492 62.3813L62.649 64.1893L62.3449 64.2059V64.2063Z" fill="white"/>
<path d="M63.5597 64.1839L63.6491 62.0879L63.9533 62.1008L63.8638 64.1968L63.5597 64.1839Z" fill="white"/>
<path d="M64.2571 64.2135L64.5297 62.1335L65.7619 62.295L65.7222 62.5969L64.7919 62.4751L64.7151 63.0616L65.4719 63.1608L65.4323 63.4642L64.6755 63.3651L64.559 64.2535L64.2571 64.2138V64.2135Z" fill="white"/>
<path d="M65.7291 64.4411L66.1825 62.3929L66.4796 62.4587L66.0263 64.5069L65.7291 64.4411Z" fill="white"/>
<path d="M66.4088 64.5869L67.0539 62.5906L68.3292 63.0027L68.241 63.2757L67.2553 62.9571L67.0743 63.5171L67.8935 63.7819L67.8053 64.0548L66.9862 63.7901L66.7869 64.4071L67.7726 64.7257L67.6844 64.9986L66.4091 64.5866L66.4088 64.5869Z" fill="white"/>
<path d="M67.9457 65.0966L68.8688 63.2127L69.4587 63.5017C69.4761 63.5102 69.5085 63.5266 69.5557 63.5508C69.6029 63.5751 69.6467 63.6009 69.6873 63.6283C69.8258 63.7189 69.924 63.8323 69.982 63.9689C70.0399 64.1055 70.0619 64.2532 70.0478 64.4125C70.0336 64.5714 69.9873 64.7311 69.9092 64.8904C69.8305 65.0509 69.7326 65.1853 69.6158 65.2939C69.4987 65.4026 69.3687 65.4756 69.2255 65.5131C69.0822 65.5505 68.9324 65.5423 68.7759 65.4882C68.7293 65.4731 68.6821 65.4542 68.6342 65.4318C68.5861 65.4095 68.5536 65.3941 68.536 65.3852L67.9461 65.0962L67.9457 65.0966ZM68.3531 64.9735L68.6632 65.1255C68.6928 65.14 68.7287 65.1564 68.7706 65.1749C68.8124 65.1932 68.8502 65.2077 68.8842 65.2178C68.989 65.2464 69.0873 65.2429 69.1789 65.2074C69.2705 65.1718 69.3536 65.1132 69.4279 65.0317C69.5025 64.9505 69.5658 64.856 69.6184 64.7487C69.6725 64.6379 69.7087 64.5283 69.726 64.4194C69.7436 64.3108 69.7383 64.2097 69.71 64.1162C69.6816 64.0227 69.6246 63.9443 69.539 63.8807C69.5107 63.8593 69.4761 63.8376 69.4351 63.8162C69.3942 63.7945 69.3596 63.7769 69.3306 63.7627L69.0205 63.6106L68.3525 64.9738L68.3531 64.9735Z" fill="white"/>
<path d="M57.2748 81.568V80.8433H55.4646V80.3811L56.7635 77.6303H57.3157L56.0168 80.3811H57.2745V79.2736H57.7665V80.3811H58.1767V80.8433H57.7665V81.568H57.2745H57.2748Z" fill="white"/>
<path d="M59.9982 81.6498C59.7958 81.6498 59.6076 81.608 59.4335 81.5239C59.2594 81.4402 59.1108 81.3246 58.9877 81.1779C58.8646 81.0312 58.7768 80.8622 58.7239 80.6708L59.1914 80.5448C59.2241 80.6742 59.2824 80.786 59.3664 80.8798C59.4502 80.9736 59.5484 81.0466 59.6605 81.0986C59.7725 81.1505 59.8896 81.1763 60.0118 81.1763C60.172 81.1763 60.3165 81.1376 60.4453 81.0602C60.5737 80.9827 60.6754 80.8798 60.75 80.7513C60.8246 80.6229 60.8621 80.4819 60.8621 80.3289C60.8621 80.1759 60.8234 80.0266 60.7459 79.8982C60.6685 79.7698 60.5649 79.6681 60.4355 79.5935C60.3061 79.5188 60.1648 79.4814 60.0118 79.4814C59.8386 79.4814 59.6904 79.5173 59.5676 79.5894C59.4445 79.6615 59.3475 79.7493 59.2764 79.8532L58.8445 79.6892L58.9647 77.6303H61.0784V78.0924H59.1999L59.4158 77.89L59.3148 79.539L59.2081 79.3995C59.3173 79.2827 59.4483 79.1927 59.6003 79.1288C59.7524 79.0649 59.9079 79.0331 60.0666 79.0331C60.3109 79.0331 60.5297 79.0901 60.723 79.204C60.9162 79.318 61.0692 79.4729 61.1823 79.669C61.2953 79.8651 61.352 80.0852 61.352 80.3295C61.352 80.5738 61.2899 80.7929 61.1659 80.9925C61.0419 81.1921 60.8775 81.3517 60.6723 81.471C60.4673 81.5903 60.2425 81.6501 59.9982 81.6501V81.6498Z" fill="white"/>
<path d="M63.3369 81.6498C63.0815 81.6498 62.8542 81.5919 62.6547 81.4761C62.4551 81.3602 62.2973 81.2025 62.1815 81.0029C62.0656 80.8033 62.0077 80.576 62.0077 80.3207V78.8769C62.0077 78.6216 62.0656 78.394 62.1815 78.1935C62.2973 77.9929 62.4551 77.8352 62.6547 77.7203C62.8542 77.6054 63.0815 77.5481 63.3369 77.5481C63.5922 77.5481 63.8198 77.6054 64.0203 77.7203C64.2209 77.8352 64.3786 77.9929 64.4935 78.1935C64.6084 78.394 64.6657 78.6219 64.6657 78.8769V80.3207C64.6657 80.576 64.6084 80.8033 64.4935 81.0029C64.3786 81.2025 64.2209 81.3602 64.0203 81.4761C63.8198 81.5919 63.5919 81.6498 63.3369 81.6498ZM63.3369 81.1823C63.4917 81.1823 63.6322 81.1449 63.7581 81.0703C63.884 80.9956 63.9841 80.8949 64.0587 80.768C64.1333 80.6415 64.1708 80.5014 64.1708 80.3484V78.8474C64.1708 78.6925 64.1333 78.5521 64.0587 78.4261C63.9838 78.3002 63.8837 78.2001 63.7581 78.1255C63.6322 78.0509 63.4917 78.0134 63.3369 78.0134C63.182 78.0134 63.0438 78.0509 62.9172 78.1255C62.7903 78.2004 62.6899 78.3005 62.615 78.4261C62.5401 78.5521 62.5029 78.6925 62.5029 78.8474V80.3484C62.5029 80.5014 62.5404 80.6415 62.615 80.768C62.6896 80.8949 62.7903 80.9953 62.9172 81.0703C63.0438 81.1452 63.1839 81.1823 63.3369 81.1823Z" fill="white"/>
<path d="M66.7601 81.6498C66.5048 81.6498 66.2775 81.5919 66.0779 81.4761C65.8784 81.3602 65.7206 81.2025 65.6048 81.0029C65.4889 80.8033 65.431 80.576 65.431 80.3207V78.8769C65.431 78.6216 65.4889 78.394 65.6048 78.1935C65.7206 77.9929 65.8784 77.8352 66.0779 77.7203C66.2775 77.6054 66.5048 77.5481 66.7601 77.5481C67.0155 77.5481 67.2431 77.6054 67.4436 77.7203C67.6441 77.8352 67.8019 77.9929 67.9168 78.1935C68.0317 78.394 68.089 78.6219 68.089 78.8769V80.3207C68.089 80.576 68.0317 80.8033 67.9168 81.0029C67.8019 81.2025 67.6441 81.3602 67.4436 81.4761C67.2431 81.5919 67.0151 81.6498 66.7601 81.6498ZM66.7601 81.1823C66.915 81.1823 67.0554 81.1449 67.1814 81.0703C67.3073 80.9956 67.4074 80.8949 67.482 80.768C67.5566 80.6415 67.5941 80.5014 67.5941 80.3484V78.8474C67.5941 78.6925 67.5566 78.5521 67.482 78.4261C67.4071 78.3002 67.307 78.2001 67.1814 78.1255C67.0554 78.0509 66.915 78.0134 66.7601 78.0134C66.6053 78.0134 66.4671 78.0509 66.3405 78.1255C66.2136 78.2004 66.1132 78.3005 66.0383 78.4261C65.9634 78.5521 65.9262 78.6925 65.9262 78.8474V80.3484C65.9262 80.5014 65.9637 80.6415 66.0383 80.768C66.1129 80.8949 66.2136 80.9953 66.3405 81.0703C66.4671 81.1452 66.6071 81.1823 66.7601 81.1823Z" fill="white"/>
<path d="M69.5412 81.568V78.1692L68.8001 78.6175V78.0735L69.5412 77.6306H70.0361V81.568H69.5412Z" fill="white"/>
<path d="M56.0971 75.3189V68.9137H57.3069V75.3189H56.0971Z" fill="white"/>
<path d="M61.0611 75.4524C60.5866 75.4524 60.1588 75.3686 59.7779 75.2012C59.3969 75.0337 59.084 74.7935 58.8394 74.4806C58.5948 74.1676 58.4399 73.7949 58.3747 73.362L59.6381 73.1753C59.7272 73.543 59.911 73.8264 60.1896 74.025C60.4683 74.2237 60.7856 74.3231 61.1416 74.3231C61.3403 74.3231 61.533 74.292 61.72 74.2296C61.9066 74.1673 62.0603 74.0754 62.1802 73.9539C62.3002 73.8324 62.3603 73.6825 62.3603 73.5046C62.3603 73.4395 62.3505 73.3765 62.3313 73.3157C62.3121 73.255 62.2803 73.198 62.2356 73.1445C62.1912 73.091 62.128 73.0406 62.0467 72.9934C61.9652 72.9458 61.8623 72.903 61.7376 72.8643L60.0741 72.3751C59.9494 72.3395 59.8049 72.2891 59.6403 72.224C59.4756 72.1588 59.3164 72.0653 59.1621 71.9438C59.0078 71.8223 58.8797 71.6614 58.7774 71.4612C58.6751 71.2609 58.6241 71.0081 58.6241 70.7028C58.6241 70.2727 58.7324 69.9154 58.9486 69.6308C59.1649 69.3462 59.4542 69.1341 59.816 68.9949C60.1777 68.8554 60.5781 68.7874 61.017 68.7903C61.4587 68.7963 61.8531 68.8718 62.2001 69.0173C62.547 69.1627 62.8376 69.3739 63.0718 69.651C63.306 69.9283 63.4751 70.2671 63.5789 70.6672L62.2712 70.8895C62.2237 70.682 62.1361 70.507 62.0086 70.3647C61.8811 70.2224 61.7291 70.1141 61.5528 70.0401C61.3762 69.9661 61.1917 69.9261 60.999 69.9201C60.8092 69.9142 60.6304 69.9403 60.4629 69.9979C60.2954 70.0558 60.1588 70.1396 60.0536 70.2491C59.9485 70.359 59.8956 70.4893 59.8956 70.6404C59.8956 70.7799 59.9384 70.8932 60.0247 70.9808C60.1106 71.0683 60.2189 71.1388 60.3493 71.192C60.4796 71.2455 60.6131 71.2899 60.7497 71.3255L61.8616 71.628C62.0275 71.6724 62.2114 71.731 62.4132 71.8037C62.6147 71.8764 62.8083 71.9771 62.9937 72.1062C63.1791 72.2353 63.3318 72.405 63.4518 72.6156C63.5717 72.8262 63.6318 73.0932 63.6318 73.4162C63.6318 73.7603 63.5597 74.0606 63.4162 74.3169C63.2723 74.5734 63.0787 74.7853 62.8357 74.9528C62.5926 75.1203 62.3175 75.2456 62.0105 75.3287C61.7036 75.4118 61.3872 75.4533 61.0607 75.4533L61.0611 75.4524Z" fill="white"/>
<path d="M67.3596 75.4524C66.7189 75.4524 66.1667 75.3129 65.7027 75.0343C65.2386 74.7557 64.8813 74.3656 64.6307 73.8645C64.3801 73.3633 64.2549 72.7806 64.2549 72.1163C64.2549 71.452 64.3801 70.8693 64.6307 70.3681C64.8813 69.8669 65.2386 69.4772 65.7027 69.1983C66.1667 68.9197 66.7192 68.7802 67.3596 68.7802C67.9999 68.7802 68.5524 68.9197 69.0164 69.1983C69.4805 69.4769 69.8378 69.8669 70.0884 70.3681C70.339 70.8693 70.4643 71.452 70.4643 72.1163C70.4643 72.7806 70.339 73.3633 70.0884 73.8645C69.8378 74.3656 69.4805 74.7557 69.0164 75.0343C68.5524 75.3132 67.9999 75.4524 67.3596 75.4524ZM67.3596 74.3137C67.7657 74.3197 68.1038 74.2322 68.3736 74.0511C68.6434 73.8704 68.8458 73.6139 68.9809 73.2817C69.1159 72.9496 69.1833 72.5611 69.1833 72.1163C69.1833 71.6715 69.1159 71.2861 68.9809 70.9597C68.8458 70.6335 68.6434 70.3801 68.3736 70.1991C68.1038 70.0184 67.7657 69.9249 67.3596 69.9189C66.9531 69.9129 66.6153 70.0004 66.3455 70.1814C66.0757 70.3625 65.8733 70.619 65.7383 70.9509C65.6032 71.283 65.5358 71.6715 65.5358 72.1163C65.5358 72.5611 65.6032 72.9468 65.7383 73.2729C65.8733 73.5991 66.0754 73.8528 66.3455 74.0335C66.6153 74.2145 66.9534 74.3077 67.3596 74.3137Z" fill="white"/>
<path d="M75.1449 73.2622L75.6565 74.2989L76.8005 74.4651L75.9729 75.272L76.1681 76.4113L75.1449 75.8733L74.1218 76.4113L74.3173 75.272L73.4893 74.4651L74.6334 74.2989L75.1449 73.2622Z" fill="#5ABDFE"/>
<path d="M50.9253 73.2503L51.4369 74.2869L52.5809 74.4532L51.7529 75.26L51.9484 76.3994L50.9253 75.8613L49.9021 76.3994L50.0973 75.26L49.2697 74.4532L50.4137 74.2869L50.9253 73.2503Z" fill="#5ABDFE"/>
<path d="M70.226 76.5948H55.7741V76.8624H70.226V76.5948Z" fill="#5ABDFE"/>
</g>
<g clip-path="url(#clip4_1_3)">
<path d="M63 132.433C72.0759 132.433 79.4333 125.076 79.4333 116C79.4333 106.924 72.0759 99.5667 63 99.5667C53.9241 99.5667 46.5667 106.924 46.5667 116C46.5667 125.076 53.9241 132.433 63 132.433Z" fill="#00284D"/>
<path d="M63 132.969C60.7094 132.969 58.4871 132.52 56.3949 131.635C54.3741 130.781 52.5595 129.557 51.0015 127.999C49.4431 126.441 48.2198 124.626 47.365 122.605C46.4801 120.513 46.0312 118.291 46.0312 116C46.0312 113.709 46.4798 111.487 47.3647 109.395C48.2195 107.374 49.4428 105.559 51.0012 104.001C52.5595 102.443 54.3741 101.219 56.3946 100.365C58.4871 99.4801 60.7094 99.0312 63 99.0312C65.2906 99.0312 67.5129 99.4798 69.6051 100.365C71.6259 101.219 73.4405 102.443 74.9985 104.001C76.5569 105.559 77.7802 107.374 78.635 109.395C79.5199 111.487 79.9685 113.709 79.9685 116C79.9685 118.291 79.5199 120.513 78.635 122.605C77.7802 124.626 76.5569 126.441 74.9985 127.999C73.4402 129.557 71.6256 130.78 69.6051 131.635C67.5129 132.52 65.2906 132.969 63 132.969V132.969ZM63 100.102C54.234 100.102 47.1022 107.234 47.1022 116C47.1022 124.766 54.234 131.898 63 131.898C71.766 131.898 78.8978 124.766 78.8978 116C78.8978 107.234 71.766 100.102 63 100.102Z" fill="#5ABDFE"/>
<path d="M63 128.546C62.825 128.546 62.6499 128.543 62.4755 128.535C62.4746 128.535 62.4733 128.535 62.4727 128.535C61.2052 128.482 59.9595 128.237 58.7626 127.805C57.4369 127.326 56.2069 126.631 55.107 125.739C54.007 124.848 53.0726 123.789 52.3293 122.591C51.5656 121.36 51.026 120.017 50.7257 118.599L50.9876 118.543C50.9876 118.543 50.9876 118.544 50.9876 118.544C52.1515 124.016 56.936 128.029 62.4783 128.268C62.779 128.281 63.0831 128.283 63.3844 128.273C69.029 128.095 73.8942 124.016 75.0319 118.448C75.0319 118.447 75.0319 118.447 75.0322 118.446L75.2945 118.5C74.1372 124.192 69.1672 128.359 63.3932 128.541C63.2692 128.544 63.1442 128.547 63.0195 128.547C63.0129 128.547 63.0063 128.547 62.9997 128.547L63 128.546Z" fill="#5ABDFE"/>
<path d="M74.9359 113.206C74.6217 111.858 74.0865 110.582 73.3448 109.414C72.6031 108.245 71.6763 107.218 70.5905 106.359L70.7558 106.149C71.8728 107.021 72.8241 108.069 73.5828 109.265C74.3409 110.461 74.884 111.766 75.1969 113.146L74.9359 113.206V113.206Z" fill="#5ABDFE"/>
<path d="M51.0688 112.996L50.8094 112.931C51.14 111.611 51.6799 110.36 52.4134 109.214C53.1472 108.069 54.0567 107.055 55.117 106.202L55.2855 106.41C54.2504 107.251 53.3613 108.247 52.6429 109.37C51.9273 110.489 51.3978 111.709 51.0688 112.996V112.996Z" fill="#5ABDFE"/>
<path d="M57.4508 106.636C57.2653 106.734 57.0856 106.777 56.9124 106.765C56.739 106.752 56.5794 106.692 56.4336 106.583C56.2878 106.474 56.1644 106.324 56.0634 106.132C55.9623 105.941 55.9082 105.754 55.9006 105.573C55.8931 105.391 55.9334 105.225 56.0212 105.075C56.109 104.925 56.2457 104.801 56.4311 104.703C56.6448 104.59 56.8507 104.551 57.0481 104.585C57.2458 104.619 57.4202 104.713 57.5717 104.868L57.3371 105.085C57.2326 104.974 57.1149 104.907 56.9833 104.881C56.852 104.856 56.7128 104.882 56.5658 104.96C56.4342 105.029 56.3404 105.117 56.2841 105.222C56.2277 105.327 56.2054 105.445 56.2173 105.575C56.2293 105.705 56.2727 105.841 56.3473 105.982C56.4213 106.125 56.5085 106.237 56.6089 106.32C56.7094 106.404 56.8192 106.452 56.9386 106.465C57.0579 106.477 57.1832 106.449 57.3148 106.38C57.4618 106.302 57.5616 106.202 57.6148 106.079C57.668 105.956 57.6787 105.821 57.6469 105.673L57.9589 105.602C58.0004 105.814 57.9793 106.012 57.8959 106.194C57.8125 106.376 57.6639 106.524 57.4498 106.636H57.4508Z" fill="white"/>
<path d="M58.4925 106.084L57.799 104.104L59.0639 103.661L59.1586 103.932L58.1811 104.274L58.3757 104.83L59.1882 104.545L59.283 104.816L58.4704 105.101L58.6848 105.713L59.6623 105.37L59.7571 105.641L58.4922 106.084H58.4925Z" fill="white"/>
<path d="M60.0282 105.564L59.6173 103.507L60.4488 103.341C60.4686 103.337 60.4938 103.332 60.5234 103.328C60.5533 103.324 60.5819 103.321 60.6096 103.321C60.7277 103.316 60.8309 103.336 60.9194 103.381C61.0082 103.425 61.0806 103.49 61.1369 103.573C61.1933 103.657 61.2326 103.754 61.2547 103.865C61.2874 104.029 61.2736 104.178 61.2134 104.313C61.1533 104.449 61.0422 104.548 60.8807 104.611L60.762 104.649L60.179 104.766L60.3263 105.504L60.0278 105.564H60.0282ZM60.1229 104.483L60.6443 104.379C60.6631 104.375 60.6842 104.369 60.7072 104.363C60.7302 104.357 60.7516 104.349 60.7718 104.34C60.8297 104.313 60.8738 104.277 60.903 104.231C60.9326 104.185 60.9503 104.136 60.9565 104.082C60.9625 104.028 60.9606 103.976 60.9506 103.926C60.9405 103.875 60.9222 103.826 60.8961 103.78C60.87 103.733 60.8344 103.694 60.7897 103.663C60.745 103.632 60.6905 103.615 60.6266 103.613C60.6046 103.612 60.5816 103.612 60.558 103.615C60.5344 103.618 60.513 103.621 60.4938 103.625L59.9724 103.729L60.1229 104.483V104.483ZM61.2314 105.324L60.6584 104.568L60.9446 104.43L61.573 105.256L61.2314 105.324V105.324Z" fill="white"/>
<path d="M62.3449 105.206L62.2451 103.398L61.5484 103.437L61.5327 103.15L63.2301 103.056L63.2459 103.343L62.5492 103.381L62.649 105.189L62.3449 105.206V105.206Z" fill="white"/>
<path d="M63.5597 105.184L63.6491 103.088L63.9533 103.1L63.8638 105.196L63.5597 105.184Z" fill="white"/>
<path d="M64.2574 105.214L64.53 103.134L65.7622 103.295L65.7225 103.597L64.7922 103.475L64.7154 104.062L65.4722 104.161L65.4326 104.464L64.6758 104.365L64.5593 105.253L64.2574 105.214V105.214Z" fill="white"/>
<path d="M65.7291 105.441L66.1825 103.393L66.4796 103.459L66.0263 105.507L65.7291 105.441Z" fill="white"/>
<path d="M66.4088 105.587L67.0539 103.59L68.3292 104.002L68.241 104.275L67.2553 103.957L67.0743 104.517L67.8935 104.782L67.8053 105.055L66.9862 104.79L66.7869 105.407L67.7726 105.725L67.6844 105.998L66.4091 105.586L66.4088 105.587Z" fill="white"/>
<path d="M67.9457 106.097L68.8688 104.213L69.4587 104.502C69.4761 104.51 69.5085 104.527 69.5557 104.551C69.6029 104.575 69.6467 104.601 69.6873 104.628C69.8258 104.719 69.924 104.832 69.982 104.969C70.0399 105.106 70.0619 105.253 70.0478 105.412C70.0336 105.571 69.9873 105.731 69.9092 105.891C69.8305 106.051 69.7326 106.186 69.6158 106.294C69.4987 106.403 69.3687 106.476 69.2255 106.513C69.0822 106.551 68.9324 106.543 68.7759 106.489C68.7293 106.473 68.6821 106.455 68.6339 106.432C68.5861 106.41 68.5533 106.394 68.5357 106.386L67.9457 106.097ZM68.3534 105.973L68.6635 106.126C68.6931 106.14 68.729 106.156 68.7709 106.175C68.8127 106.194 68.8505 106.208 68.8845 106.218C68.9894 106.246 69.0876 106.243 69.1792 106.207C69.2708 106.172 69.3539 106.113 69.4282 106.032C69.5028 105.95 69.5661 105.856 69.6187 105.749C69.6728 105.638 69.709 105.528 69.7263 105.419C69.744 105.311 69.7386 105.21 69.7103 105.116C69.6819 105.023 69.625 104.944 69.5393 104.881C69.511 104.859 69.4764 104.838 69.4354 104.816C69.3945 104.794 69.3599 104.777 69.3312 104.763L69.0211 104.611L68.3531 105.974L68.3534 105.973Z" fill="white"/>
<path d="M56.8432 122.682V119.284L56.1021 119.732V119.188L56.8432 118.745H57.3381V122.683H56.8432V122.682Z" fill="white"/>
<path d="M60.0779 122.682V121.958H58.2677V121.495L59.5666 118.745H60.1188L58.8199 121.495H60.0776V120.388H60.5696V121.495H60.9798V121.958H60.5696V122.682H60.0776H60.0779Z" fill="white"/>
<path d="M62.9654 122.764C62.7101 122.764 62.4828 122.706 62.2832 122.59C62.0836 122.474 61.9259 122.317 61.81 122.117C61.6942 121.918 61.6362 121.69 61.6362 121.435V119.991C61.6362 119.736 61.6942 119.508 61.81 119.308C61.9259 119.107 62.0836 118.95 62.2832 118.835C62.4828 118.72 62.7101 118.662 62.9654 118.662C63.2207 118.662 63.4483 118.72 63.6488 118.835C63.8494 118.95 64.0071 119.107 64.122 119.308C64.2369 119.508 64.2942 119.736 64.2942 119.991V121.435C64.2942 121.69 64.2369 121.918 64.122 122.117C64.0071 122.317 63.8494 122.474 63.6488 122.59C63.4483 122.706 63.2204 122.764 62.9654 122.764ZM62.9654 122.297C63.1203 122.297 63.2607 122.259 63.3866 122.185C63.5125 122.11 63.6126 122.009 63.6872 121.882C63.7619 121.756 63.7993 121.616 63.7993 121.463V119.961C63.7993 119.806 63.7619 119.666 63.6872 119.54C63.6123 119.414 63.5122 119.314 63.3866 119.239C63.2607 119.165 63.1203 119.127 62.9654 119.127C62.8105 119.127 62.6723 119.165 62.5457 119.239C62.4189 119.314 62.3184 119.414 62.2435 119.54C62.1686 119.666 62.1314 119.806 62.1314 119.961V121.463C62.1314 121.616 62.1689 121.756 62.2435 121.882C62.3181 122.009 62.4189 122.11 62.5457 122.185C62.6723 122.259 62.8124 122.297 62.9654 122.297Z" fill="white"/>
<path d="M66.389 122.764C66.1337 122.764 65.9064 122.706 65.7068 122.59C65.5072 122.474 65.3495 122.317 65.2336 122.117C65.1178 121.918 65.0598 121.69 65.0598 121.435V119.991C65.0598 119.736 65.1178 119.508 65.2336 119.308C65.3495 119.107 65.5072 118.95 65.7068 118.835C65.9064 118.72 66.1337 118.662 66.389 118.662C66.6443 118.662 66.8719 118.72 67.0725 118.835C67.273 118.95 67.4307 119.107 67.5456 119.308C67.6605 119.508 67.7178 119.736 67.7178 119.991V121.435C67.7178 121.69 67.6605 121.918 67.5456 122.117C67.4307 122.317 67.273 122.474 67.0725 122.59C66.8719 122.706 66.644 122.764 66.389 122.764ZM66.389 122.297C66.5439 122.297 66.6843 122.259 66.8102 122.185C66.9361 122.11 67.0363 122.009 67.1109 121.882C67.1855 121.756 67.2229 121.616 67.2229 121.463V119.961C67.2229 119.806 67.1855 119.666 67.1109 119.54C67.0359 119.414 66.9358 119.314 66.8102 119.239C66.6843 119.165 66.5439 119.127 66.389 119.127C66.2341 119.127 66.0959 119.165 65.9693 119.239C65.8425 119.314 65.742 119.414 65.6671 119.54C65.5922 119.666 65.555 119.806 65.555 119.961V121.463C65.555 121.616 65.5925 121.756 65.6671 121.882C65.7417 122.009 65.8425 122.11 65.9693 122.185C66.0959 122.259 66.236 122.297 66.389 122.297Z" fill="white"/>
<path d="M69.1698 122.682V119.284L68.4287 119.732V119.188L69.1698 118.745H69.6646V122.683H69.1698V122.682Z" fill="white"/>
<path d="M56.0971 116.319V109.914H57.3069V116.319H56.0971Z" fill="white"/>
<path d="M61.0611 116.452C60.5866 116.452 60.1588 116.369 59.7779 116.201C59.3969 116.034 59.084 115.793 58.8394 115.481C58.5948 115.168 58.4399 114.795 58.3747 114.362L59.6381 114.175C59.7272 114.543 59.911 114.826 60.1896 115.025C60.4683 115.224 60.7856 115.323 61.1416 115.323C61.3403 115.323 61.533 115.292 61.72 115.23C61.9066 115.167 62.0603 115.075 62.1802 114.954C62.3002 114.832 62.3603 114.682 62.3603 114.505C62.3603 114.439 62.3505 114.376 62.3313 114.316C62.3121 114.255 62.2803 114.198 62.2356 114.144C62.1912 114.091 62.128 114.041 62.0467 113.993C61.9652 113.946 61.8623 113.903 61.7376 113.864L60.0741 113.375C59.9494 113.339 59.8049 113.289 59.6403 113.224C59.4756 113.159 59.3164 113.065 59.1621 112.944C59.0078 112.822 58.8797 112.661 58.7774 112.461C58.6751 112.261 58.6241 112.008 58.6241 111.703C58.6241 111.273 58.7324 110.915 58.9486 110.631C59.1649 110.346 59.4542 110.134 59.816 109.995C60.1777 109.855 60.5781 109.787 61.017 109.79C61.4587 109.796 61.8531 109.872 62.2001 110.017C62.547 110.163 62.8376 110.374 63.0718 110.651C63.306 110.928 63.4751 111.267 63.5789 111.668L62.2712 111.89C62.2237 111.682 62.1361 111.507 62.0086 111.365C61.8811 111.223 61.7291 111.114 61.5528 111.04C61.3762 110.966 61.1917 110.926 60.999 110.92C60.8092 110.914 60.6304 110.941 60.4629 110.998C60.2954 111.056 60.1588 111.14 60.0536 111.249C59.9485 111.359 59.8956 111.49 59.8956 111.641C59.8956 111.78 59.9384 111.894 60.0247 111.981C60.1106 112.069 60.2189 112.139 60.3493 112.192C60.4796 112.246 60.6131 112.29 60.7497 112.326L61.8616 112.628C62.0275 112.673 62.2114 112.731 62.4132 112.804C62.6147 112.877 62.8083 112.977 62.9937 113.107C63.1791 113.236 63.3318 113.405 63.4518 113.616C63.5717 113.827 63.6318 114.093 63.6318 114.416C63.6318 114.761 63.5597 115.061 63.4162 115.317C63.2723 115.574 63.0787 115.786 62.8357 115.953C62.5926 116.121 62.3175 116.246 62.0105 116.329C61.7036 116.412 61.3872 116.454 61.0607 116.454L61.0611 116.452Z" fill="white"/>
<path d="M67.3596 116.452C66.7189 116.452 66.1667 116.313 65.7027 116.034C65.2386 115.756 64.8813 115.366 64.6307 114.864C64.3801 114.363 64.2549 113.781 64.2549 113.116C64.2549 112.452 64.3801 111.869 64.6307 111.368C64.8813 110.867 65.2386 110.477 65.7027 110.198C66.1667 109.92 66.7192 109.78 67.3596 109.78C67.9999 109.78 68.5524 109.92 69.0164 110.198C69.4805 110.477 69.8378 110.867 70.0884 111.368C70.339 111.869 70.4643 112.452 70.4643 113.116C70.4643 113.781 70.339 114.363 70.0884 114.864C69.8378 115.366 69.4805 115.756 69.0164 116.034C68.5524 116.313 67.9999 116.452 67.3596 116.452ZM67.3596 115.314C67.7657 115.32 68.1038 115.232 68.3736 115.051C68.6434 114.87 68.8458 114.614 68.9809 114.282C69.1159 113.95 69.1833 113.561 69.1833 113.116C69.1833 112.671 69.1159 112.286 68.9809 111.96C68.8458 111.634 68.6434 111.38 68.3736 111.199C68.1038 111.018 67.7657 110.925 67.3596 110.919C66.9531 110.913 66.6153 111 66.3455 111.181C66.0757 111.362 65.8733 111.619 65.7383 111.951C65.6032 112.283 65.5358 112.671 65.5358 113.116C65.5358 113.561 65.6032 113.947 65.7383 114.273C65.8733 114.599 66.0754 114.853 66.3455 115.034C66.6153 115.215 66.9534 115.308 67.3596 115.314Z" fill="white"/>
<path d="M75.1449 114.262L75.6565 115.299L76.8005 115.465L75.9729 116.272L76.1681 117.411L75.1449 116.873L74.1218 117.411L74.3173 116.272L73.4893 115.465L74.6334 115.299L75.1449 114.262Z" fill="#5ABDFE"/>
<path d="M50.9253 114.25L51.4369 115.287L52.5809 115.453L51.7529 116.26L51.9484 117.399L50.9253 116.861L49.9021 117.399L50.0973 116.26L49.2697 115.453L50.4137 115.287L50.9253 114.25Z" fill="#5ABDFE"/>
<path d="M70.226 117.595H55.7741V117.862H70.226V117.595Z" fill="#5ABDFE"/>
</g>
</g>
<defs>
<clipPath id="clip0_1_3">
<rect width="95" height="150" fill="white"/>
</clipPath>
<clipPath id="clip1_1_3">
<rect width="36" height="61" fill="white" transform="translate(0 49)"/>
</clipPath>
<clipPath id="clip2_1_3">
<rect width="34" height="34" fill="white" transform="translate(46 16)"/>
</clipPath>
<clipPath id="clip3_1_3">
<rect width="34" height="34" fill="white" transform="translate(46 58)"/>
</clipPath>
<clipPath id="clip4_1_3">
<rect width="34" height="34" fill="white" transform="translate(46 99)"/>
</clipPath>
</defs>
</svg>
